<svg width="148" height="148" viewBox="0 0 148 148" fill="none" xmlns="http://www.w3.org/2000/svg">
<circle cx="126.857" cy="3.52381" r="3.52381" transform="rotate(90 126.857 3.52381)" fill="#F1EFF0"/>
<circle cx="126.857" cy="21.1428" r="3.52381" transform="rotate(90 126.857 21.1428)" fill="#F1EFF0"/>
<circle cx="126.857" cy="56.381" r="3.52381" transform="rotate(90 126.857 56.381)" fill="#F1EFF0"/>
<circle cx="126.857" cy="74" r="3.52381" transform="rotate(90 126.857 74)" fill="#F1EFF0"/>
<circle cx="126.857" cy="91.619" r="3.52381" transform="rotate(90 126.857 91.619)" fill="#F1EFF0"/>
<circle cx="126.857" cy="109.238" r="3.52381" transform="rotate(90 126.857 109.238)" fill="#F1EFF0"/>
<circle cx="126.857" cy="126.857" r="3.52381" transform="rotate(90 126.857 126.857)" fill="#F1EFF0"/>
<circle cx="126.857" cy="144.476" r="3.52381" transform="rotate(90 126.857 144.476)" fill="#F1EFF0"/>
<circle cx="126.857" cy="38.7618" r="3.52381" transform="rotate(90 126.857 38.7618)" fill="#F1EFF0"/>
<circle cx="109.238" cy="3.52381" r="3.52381" transform="rotate(90 109.238 3.52381)" fill="#F1EFF0"/>
<circle cx="109.238" cy="21.1428" r="3.52381" transform="rotate(90 109.238 21.1428)" fill="#F1EFF0"/>
<circle cx="109.238" cy="56.381" r="3.52381" transform="rotate(90 109.238 56.381)" fill="#F1EFF0"/>
<circle cx="109.238" cy="74" r="3.52381" transform="rotate(90 109.238 74)" fill="#F1EFF0"/>
<circle cx="109.238" cy="91.619" r="3.52381" transform="rotate(90 109.238 91.619)" fill="#F1EFF0"/>
<circle cx="109.238" cy="109.238" r="3.52381" transform="rotate(90 109.238 109.238)" fill="#F1EFF0"/>
<circle cx="109.238" cy="126.857" r="3.52381" transform="rotate(90 109.238 126.857)" fill="#F1EFF0"/>
<circle cx="109.238" cy="144.476" r="3.52381" transform="rotate(90 109.238 144.476)" fill="#F1EFF0"/>
<circle cx="109.238" cy="38.7618" r="3.52381" transform="rotate(90 109.238 38.7618)" fill="#F1EFF0"/>
<circle cx="144.476" cy="3.52381" r="3.52381" transform="rotate(90 144.476 3.52381)" fill="#F1EFF0"/>
<circle cx="144.476" cy="21.1428" r="3.52381" transform="rotate(90 144.476 21.1428)" fill="#F1EFF0"/>
<circle cx="144.476" cy="56.381" r="3.52381" transform="rotate(90 144.476 56.381)" fill="#F1EFF0"/>
<circle cx="144.476" cy="74" r="3.52381" transform="rotate(90 144.476 74)" fill="#F1EFF0"/>
<circle cx="144.476" cy="91.619" r="3.52381" transform="rotate(90 144.476 91.619)" fill="#F1EFF0"/>
<circle cx="144.476" cy="109.238" r="3.52381" transform="rotate(90 144.476 109.238)" fill="#F1EFF0"/>
<circle cx="144.476" cy="126.857" r="3.52381" transform="rotate(90 144.476 126.857)" fill="#F1EFF0"/>
<circle cx="144.476" cy="144.476" r="3.52381" transform="rotate(90 144.476 144.476)" fill="#F1EFF0"/>
<circle cx="144.476" cy="38.762" r="3.52381" transform="rotate(90 144.476 38.762)" fill="#F1EFF0"/>
<circle cx="91.6188" cy="3.52381" r="3.52381" transform="rotate(90 91.6188 3.52381)" fill="#F1EFF0"/>
<circle cx="91.6188" cy="21.1428" r="3.52381" transform="rotate(90 91.6188 21.1428)" fill="#F1EFF0"/>
<circle cx="91.6188" cy="56.381" r="3.52381" transform="rotate(90 91.6188 56.381)" fill="#F1EFF0"/>
<circle cx="91.6188" cy="74" r="3.52381" transform="rotate(90 91.6188 74)" fill="#F1EFF0"/>
<circle cx="91.6188" cy="91.619" r="3.52381" transform="rotate(90 91.6188 91.619)" fill="#F1EFF0"/>
<circle cx="91.6188" cy="109.238" r="3.52381" transform="rotate(90 91.6188 109.238)" fill="#F1EFF0"/>
<circle cx="91.6188" cy="126.857" r="3.52381" transform="rotate(90 91.6188 126.857)" fill="#F1EFF0"/>
<circle cx="91.6188" cy="144.476" r="3.52381" transform="rotate(90 91.6188 144.476)" fill="#F1EFF0"/>
<circle cx="91.6188" cy="38.762" r="3.52381" transform="rotate(90 91.6188 38.762)" fill="#F1EFF0"/>
<circle cx="73.9996" cy="3.52381" r="3.52381" transform="rotate(90 73.9996 3.52381)" fill="#F1EFF0"/>
<circle cx="73.9996" cy="21.1428" r="3.52381" transform="rotate(90 73.9996 21.1428)" fill="#F1EFF0"/>
<circle cx="73.9996" cy="56.381" r="3.52381" transform="rotate(90 73.9996 56.381)" fill="#F1EFF0"/>
<circle cx="73.9996" cy="74" r="3.52381" transform="rotate(90 73.9996 74)" fill="#F1EFF0"/>
<circle cx="73.9996" cy="91.619" r="3.52381" transform="rotate(90 73.9996 91.619)" fill="#F1EFF0"/>
<circle cx="73.9996" cy="109.238" r="3.52381" transform="rotate(90 73.9996 109.238)" fill="#F1EFF0"/>
<circle cx="73.9996" cy="126.857" r="3.52381" transform="rotate(90 73.9996 126.857)" fill="#F1EFF0"/>
<circle cx="73.9996" cy="144.476" r="3.52381" transform="rotate(90 73.9996 144.476)" fill="#F1EFF0"/>
<circle cx="73.9996" cy="38.762" r="3.52381" transform="rotate(90 73.9996 38.762)" fill="#F1EFF0"/>
<circle cx="56.3805" cy="3.52381" r="3.52381" transform="rotate(90 56.3805 3.52381)" fill="#F1EFF0"/>
<circle cx="56.3805" cy="21.1428" r="3.52381" transform="rotate(90 56.3805 21.1428)" fill="#F1EFF0"/>
<circle cx="56.3805" cy="56.381" r="3.52381" transform="rotate(90 56.3805 56.381)" fill="#F1EFF0"/>
<circle cx="56.3805" cy="74" r="3.52381" transform="rotate(90 56.3805 74)" fill="#F1EFF0"/>
<circle cx="56.3805" cy="91.619" r="3.52381" transform="rotate(90 56.3805 91.619)" fill="#F1EFF0"/>
<circle cx="56.3805" cy="109.238" r="3.52381" transform="rotate(90 56.3805 109.238)" fill="#F1EFF0"/>
<circle cx="56.3805" cy="126.857" r="3.52381" transform="rotate(90 56.3805 126.857)" fill="#F1EFF0"/>
<circle cx="56.3805" cy="144.476" r="3.52381" transform="rotate(90 56.3805 144.476)" fill="#F1EFF0"/>
<circle cx="56.3805" cy="38.7618" r="3.52381" transform="rotate(90 56.3805 38.7618)" fill="#F1EFF0"/>
<circle cx="38.7623" cy="3.52381" r="3.52381" transform="rotate(90 38.7623 3.52381)" fill="#F1EFF0"/>
<circle cx="38.7623" cy="21.1428" r="3.52381" transform="rotate(90 38.7623 21.1428)" fill="#F1EFF0"/>
<circle cx="38.7623" cy="56.381" r="3.52381" transform="rotate(90 38.7623 56.381)" fill="#F1EFF0"/>
<circle cx="38.7623" cy="74" r="3.52381" transform="rotate(90 38.7623 74)" fill="#F1EFF0"/>
<circle cx="38.7623" cy="91.619" r="3.52381" transform="rotate(90 38.7623 91.619)" fill="#F1EFF0"/>
<circle cx="38.7623" cy="109.238" r="3.52381" transform="rotate(90 38.7623 109.238)" fill="#F1EFF0"/>
<circle cx="38.7623" cy="126.857" r="3.52381" transform="rotate(90 38.7623 126.857)" fill="#F1EFF0"/>
<circle cx="38.7623" cy="144.476" r="3.52381" transform="rotate(90 38.7623 144.476)" fill="#F1EFF0"/>
<circle cx="38.7623" cy="38.7618" r="3.52381" transform="rotate(90 38.7623 38.7618)" fill="#F1EFF0"/>
<circle cx="21.1432" cy="3.52381" r="3.52381" transform="rotate(90 21.1432 3.52381)" fill="#F1EFF0"/>
<circle cx="21.1432" cy="21.1428" r="3.52381" transform="rotate(90 21.1432 21.1428)" fill="#F1EFF0"/>
<circle cx="21.1432" cy="56.381" r="3.52381" transform="rotate(90 21.1432 56.381)" fill="#F1EFF0"/>
<circle cx="21.1432" cy="74" r="3.52381" transform="rotate(90 21.1432 74)" fill="#F1EFF0"/>
<circle cx="21.1432" cy="91.619" r="3.52381" transform="rotate(90 21.1432 91.619)" fill="#F1EFF0"/>
<circle cx="21.1432" cy="109.238" r="3.52381" transform="rotate(90 21.1432 109.238)" fill="#F1EFF0"/>
<circle cx="21.1432" cy="126.857" r="3.52381" transform="rotate(90 21.1432 126.857)" fill="#F1EFF0"/>
<circle cx="21.1432" cy="144.476" r="3.52381" transform="rotate(90 21.1432 144.476)" fill="#F1EFF0"/>
<circle cx="21.1432" cy="38.762" r="3.52381" transform="rotate(90 21.1432 38.762)" fill="#F1EFF0"/>
<circle cx="3.52404" cy="3.52381" r="3.52381" transform="rotate(90 3.52404 3.52381)" fill="#F1EFF0"/>
<circle cx="3.52404" cy="21.1428" r="3.52381" transform="rotate(90 3.52404 21.1428)" fill="#F1EFF0"/>
<circle cx="3.52404" cy="56.381" r="3.52381" transform="rotate(90 3.52404 56.381)" fill="#F1EFF0"/>
<circle cx="3.52404" cy="74" r="3.52381" transform="rotate(90 3.52404 74)" fill="#F1EFF0"/>
<circle cx="3.52404" cy="91.619" r="3.52381" transform="rotate(90 3.52404 91.619)" fill="#F1EFF0"/>
<circle cx="3.52404" cy="109.238" r="3.52381" transform="rotate(90 3.52404 109.238)" fill="#F1EFF0"/>
<circle cx="3.52404" cy="126.857" r="3.52381" transform="rotate(90 3.52404 126.857)" fill="#F1EFF0"/>
<circle cx="3.52404" cy="144.476" r="3.52381" transform="rotate(90 3.52404 144.476)" fill="#F1EFF0"/>
<circle cx="3.52404" cy="38.762" r="3.52381" transform="rotate(90 3.52404 38.762)" fill="#F1EFF0"/>
</svg>
