<svg width="190" height="36" viewBox="0 0 190 36" fill="none" xmlns="http://www.w3.org/2000/svg">
<g clip-path="url(#clip0_97_606)">
<path fill-rule="evenodd" clip-rule="evenodd" d="M22.7724 10.4126C21.307 9.43352 19.5842 8.91089 17.8218 8.91089V0C21.3466 0 24.7922 1.04523 27.723 3.00351C30.6538 4.96179 32.938 7.74518 34.287 11.0017C35.6358 14.2581 35.9888 17.8416 35.3011 21.2986C34.6135 24.7557 32.9161 27.9313 30.4237 30.4237C27.9313 32.9161 24.7557 34.6135 21.2986 35.3011C17.8416 35.9888 14.2581 35.6358 11.0017 34.287C7.74517 32.938 4.96179 30.6538 3.00351 27.723C1.04523 24.7922 0 21.3466 0 17.8218H8.91089C8.91089 19.5842 9.43352 21.307 10.4126 22.7724C11.3918 24.2378 12.7835 25.3799 14.4118 26.0544C16.04 26.7288 17.8317 26.9053 19.5602 26.5614C21.2887 26.2176 22.8765 25.369 24.1228 24.1228C25.369 22.8765 26.2176 21.2887 26.5614 19.5602C26.9053 17.8317 26.7288 16.04 26.0544 14.4118C25.3799 12.7835 24.2378 11.3918 22.7724 10.4126Z" fill="#3450A3"/>
<path fill-rule="evenodd" clip-rule="evenodd" d="M8.91089 4.70934e-06C8.91089 1.1702 8.68041 2.32894 8.23259 3.41006C7.78477 4.49117 7.12841 5.4735 6.30095 6.30096C5.4735 7.12841 4.49117 7.78478 3.41005 8.2326C2.32893 8.68041 1.17019 8.9109 3.89504e-07 8.9109L0 17.8218C2.34039 17.8218 4.65786 17.3608 6.82011 16.4652C8.98235 15.5696 10.947 14.2568 12.6019 12.6019C14.2568 10.947 15.5695 8.98236 16.4652 6.82011C17.3608 4.65786 17.8218 2.34039 17.8218 0L8.91089 4.70934e-06Z" fill="#3450A3"/>
<path d="M111.938 12.8784H107.614V26.6122H111.938V12.8784Z" fill="#474749"/>
<path d="M108.095 10.307C108.547 10.7592 109.112 10.9852 109.79 10.9852C110.468 10.9852 111.024 10.7592 111.457 10.307C111.891 9.8361 112.108 9.27088 112.108 8.61152C112.108 7.93333 111.891 7.36813 111.457 6.91601C111.024 6.46385 110.468 6.23779 109.79 6.23779C109.112 6.23779 108.547 6.46385 108.095 6.91601C107.661 7.36813 107.445 7.93333 107.445 8.61152C107.445 9.27088 107.661 9.8361 108.095 10.307Z" fill="#474749"/>
<path d="M45.5847 26.6123V6.66162H50.0214V22.7127H58.8664V26.6123H45.5847Z" fill="#474749"/>
<path fill-rule="evenodd" clip-rule="evenodd" d="M66.8561 26.9228C65.4432 26.9228 64.1622 26.612 63.013 25.9903C61.8826 25.3498 60.9878 24.4832 60.3284 23.3905C59.6691 22.2978 59.3394 21.0733 59.3394 19.7169C59.3394 18.3604 59.6691 17.1454 60.3284 16.0715C60.9878 14.9976 61.8826 14.1499 63.013 13.5282C64.1433 12.8876 65.4244 12.5674 66.8561 12.5674C68.2879 12.5674 69.569 12.8783 70.6993 13.4999C71.8297 14.1216 72.7246 14.9788 73.3839 16.0715C74.0433 17.1454 74.373 18.3604 74.373 19.7169C74.373 21.0733 74.0433 22.2978 73.3839 23.3905C72.7246 24.4832 71.8297 25.3498 70.6993 25.9903C69.569 26.612 68.2879 26.9228 66.8561 26.9228ZM66.8561 22.9949C67.4778 22.9949 68.0242 22.863 68.4952 22.5993C68.9661 22.3167 69.3241 21.9305 69.569 21.4407C69.8327 20.932 69.9646 20.3574 69.9646 19.7169C69.9646 19.0763 69.8327 18.5206 69.569 18.0496C69.3052 17.5598 68.9379 17.183 68.4669 16.9193C68.0147 16.6366 67.4778 16.4954 66.8561 16.4954C66.2533 16.4954 65.7164 16.6366 65.2454 16.9193C64.7745 17.183 64.4071 17.5598 64.1433 18.0496C63.8795 18.5395 63.7477 19.1046 63.7477 19.7451C63.7477 20.3668 63.8795 20.932 64.1433 21.4407C64.4071 21.9305 64.7745 22.3167 65.2454 22.5993C65.7164 22.863 66.2533 22.9949 66.8561 22.9949Z" fill="#474749"/>
<path fill-rule="evenodd" clip-rule="evenodd" d="M77.7972 31.9813C78.9464 32.5087 80.2745 32.7725 81.7817 32.7725C83.2511 32.7725 84.5605 32.4804 85.7097 31.8964C86.8589 31.3124 87.7631 30.5024 88.4225 29.4662C89.0818 28.4301 89.412 27.2056 89.412 25.7926V12.8784H85.1727V13.8011C84.8574 13.5357 84.4994 13.3129 84.0989 13.1327C83.3641 12.7747 82.5258 12.5957 81.5839 12.5957C80.3217 12.5957 79.2007 12.8972 78.2211 13.5C77.2414 14.084 76.4691 14.8941 75.9038 15.9302C75.3386 16.9476 75.0562 18.0968 75.0562 19.3779C75.0562 20.6401 75.3386 21.7892 75.9038 22.8254C76.4691 23.8616 77.2414 24.6811 78.2211 25.2839C79.2007 25.8867 80.3217 26.1882 81.5839 26.1882C82.507 26.1882 83.3453 26.0093 84.0989 25.6513C84.4639 25.4779 84.7936 25.2736 85.0879 25.0382V25.9056C85.0879 26.8664 84.7771 27.6106 84.1554 28.1381C83.5526 28.6656 82.7143 28.9293 81.6404 28.9293C80.7738 28.9293 80.0297 28.7786 79.408 28.4771C78.8051 28.1758 78.2587 27.733 77.7689 27.149L75.1126 29.8053C75.772 30.7473 76.6669 31.4726 77.7972 31.9813ZM83.9576 21.9494C83.5243 22.2131 83.0063 22.345 82.4034 22.345C81.8005 22.345 81.273 22.2131 80.8209 21.9494C80.3875 21.6856 80.0485 21.3277 79.8036 20.8755C79.5586 20.4046 79.4362 19.9053 79.4362 19.3779C79.4362 18.8127 79.5586 18.304 79.8036 17.8519C80.0485 17.3997 80.397 17.0418 80.8491 16.778C81.3013 16.5143 81.8193 16.3824 82.4034 16.3824C83.0063 16.3824 83.5243 16.5143 83.9576 16.778C84.4097 17.0418 84.7488 17.3997 84.975 17.8519C85.2198 18.304 85.3423 18.8127 85.3423 19.3779C85.3423 19.943 85.2198 20.4516 84.975 20.9038C84.7488 21.3371 84.4097 21.6856 83.9576 21.9494Z" fill="#474749"/>
<path fill-rule="evenodd" clip-rule="evenodd" d="M98.5109 26.9228C97.0976 26.9228 95.8162 26.612 94.6676 25.9903C93.5368 25.3498 92.6422 24.4832 91.9828 23.3905C91.3234 22.2978 90.9937 21.0733 90.9937 19.7169C90.9937 18.3604 91.3234 17.1454 91.9828 16.0715C92.6422 14.9976 93.5368 14.1499 94.6676 13.5282C95.7975 12.8876 97.0789 12.5674 98.5109 12.5674C99.942 12.5674 101.223 12.8783 102.353 13.4999C103.484 14.1216 104.379 14.9788 105.038 16.0715C105.698 17.1454 106.027 18.3604 106.027 19.7169C106.027 21.0733 105.698 22.2978 105.038 23.3905C104.379 24.4832 103.484 25.3498 102.353 25.9903C101.223 26.612 99.942 26.9228 98.5109 26.9228ZM98.5109 22.9949C99.132 22.9949 99.6782 22.863 100.15 22.5993C100.62 22.3167 100.978 21.9305 101.223 21.4407C101.487 20.932 101.619 20.3574 101.619 19.7169C101.619 19.0763 101.487 18.5206 101.223 18.0496C100.96 17.5598 100.592 17.183 100.121 16.9193C99.6693 16.6366 99.132 16.4954 98.5109 16.4954C97.9076 16.4954 97.3703 16.6366 96.8998 16.9193C96.4284 17.183 96.0613 17.5598 95.7975 18.0496C95.5338 18.5395 95.4019 19.1046 95.4019 19.7451C95.4019 20.3668 95.5338 20.932 95.7975 21.4407C96.0613 21.9305 96.4284 22.3167 96.8998 22.5993C97.3703 22.863 97.9076 22.9949 98.5109 22.9949Z" fill="#474749"/>
<path fill-rule="evenodd" clip-rule="evenodd" d="M122.33 26.8947C121.407 26.8947 120.559 26.7157 119.787 26.3578C119.38 26.1694 119.013 25.9445 118.685 25.683V32.4051H114.418V12.8784H118.741V13.8262C119.055 13.5697 119.403 13.3479 119.787 13.1609C120.559 12.7841 121.407 12.5957 122.33 12.5957C123.63 12.5957 124.779 12.9066 125.777 13.5283C126.795 14.1499 127.586 14.9977 128.151 16.0716C128.736 17.1454 129.027 18.37 129.027 19.7452C129.027 21.1205 128.736 22.345 128.151 23.4189C127.586 24.4927 126.795 25.3404 125.777 25.9621C124.779 26.5838 123.63 26.8947 122.33 26.8947ZM121.539 22.995C122.16 22.995 122.698 22.8537 123.15 22.5711C123.621 22.2885 123.988 21.9022 124.252 21.4125C124.516 20.9227 124.647 20.3669 124.647 19.7452C124.647 19.1047 124.516 18.5395 124.252 18.0497C123.988 17.5599 123.621 17.1831 123.15 16.9194C122.698 16.6367 122.17 16.4955 121.567 16.4955C120.965 16.4955 120.427 16.6367 119.957 16.9194C119.504 17.1831 119.147 17.5599 118.883 18.0497C118.619 18.5395 118.487 19.1047 118.487 19.7452C118.487 20.3669 118.609 20.9227 118.854 21.4125C119.118 21.9022 119.485 22.2885 119.957 22.5711C120.427 22.8537 120.955 22.995 121.539 22.995Z" fill="#474749"/>
<path d="M133.259 26.6405C134.05 26.8478 134.85 26.9513 135.66 26.9513C137.375 26.9513 138.731 26.5558 139.73 25.7645C140.747 24.9733 141.255 23.9089 141.255 22.5713C141.255 21.7047 141.096 21.0076 140.775 20.4802C140.455 19.9338 140.041 19.5005 139.532 19.1802C139.023 18.86 138.486 18.6056 137.921 18.4172C137.356 18.2288 136.819 18.0687 136.311 17.9368C135.802 17.8049 135.388 17.6543 135.067 17.4847C134.747 17.3151 134.586 17.089 134.586 16.8065C134.586 16.5427 134.709 16.3449 134.954 16.213C135.199 16.0623 135.566 15.987 136.056 15.987C136.565 15.987 137.082 16.0906 137.61 16.2978C138.156 16.505 138.646 16.8631 139.079 17.3717L141.538 14.8849C140.917 14.0936 140.107 13.5002 139.108 13.1046C138.129 12.6902 137.055 12.4829 135.887 12.4829C134.775 12.4829 133.805 12.6713 132.976 13.048C132.147 13.4249 131.506 13.943 131.054 14.6023C130.602 15.2428 130.376 16.0058 130.376 16.8913C130.376 17.7202 130.536 18.4079 130.856 18.9542C131.176 19.4816 131.592 19.8961 132.099 20.1975C132.608 20.499 133.146 20.7345 133.711 20.904C134.275 21.0735 134.813 21.2337 135.322 21.3844C135.83 21.5163 136.245 21.6765 136.565 21.8648C136.904 22.0344 137.073 22.2887 137.073 22.6278C137.073 22.8915 136.932 23.0987 136.649 23.2495C136.386 23.4002 136 23.4756 135.491 23.4756C134.756 23.4756 134.078 23.3437 133.457 23.0799C132.835 22.7974 132.297 22.4112 131.845 21.9213L129.387 24.4081C129.858 24.9167 130.423 25.369 131.083 25.7645C131.761 26.1413 132.486 26.4333 133.259 26.6405Z" fill="#474749"/>
<path d="M149.14 26.923C147.878 26.923 146.757 26.6686 145.778 26.16C144.816 25.6325 144.063 24.9166 143.517 24.0123C142.97 23.0892 142.697 22.0343 142.697 20.8473V12.8784H147.021V20.7908C147.021 21.2618 147.096 21.6669 147.247 22.0059C147.416 22.3451 147.662 22.6088 147.981 22.7972C148.302 22.9856 148.688 23.0798 149.14 23.0798C149.781 23.0798 150.289 22.882 150.666 22.4863C151.043 22.0719 151.231 21.5067 151.231 20.7908V12.8784H155.555V20.8191C155.555 22.0248 155.282 23.0892 154.735 24.0123C154.189 24.9166 153.436 25.6325 152.474 26.16C151.514 26.6686 150.403 26.923 149.14 26.923Z" fill="#474749"/>
<path d="M162.028 12.8784H157.704V26.6121H162.028V18.5866C162.028 18.1156 162.122 17.72 162.31 17.3997C162.518 17.0795 162.791 16.8345 163.13 16.665C163.469 16.4766 163.855 16.3824 164.288 16.3824C164.91 16.3824 165.428 16.5802 165.842 16.9759C166.276 17.3526 166.493 17.8896 166.493 18.5866V26.6121H170.816V18.5866C170.816 18.1156 170.911 17.72 171.099 17.3997C171.307 17.0795 171.579 16.8345 171.919 16.665C172.257 16.4766 172.644 16.3824 173.077 16.3824C173.699 16.3824 174.217 16.5802 174.631 16.9759C175.064 17.3526 175.281 17.8896 175.281 18.5866V26.6121H179.605V18.1062C179.605 16.9571 179.36 15.9774 178.87 15.1673C178.399 14.3383 177.749 13.7072 176.92 13.274C176.11 12.8218 175.177 12.5957 174.122 12.5957C173.049 12.5957 172.078 12.8312 171.212 13.3022C170.649 13.6023 170.157 13.9895 169.736 14.464C169.343 13.9677 168.865 13.5616 168.301 13.2457C167.548 12.8124 166.691 12.5957 165.73 12.5957C164.713 12.5957 163.799 12.8124 162.989 13.2457C162.636 13.4259 162.316 13.6418 162.028 13.8934V12.8784Z" fill="#474749"/>
</g>
<defs>
<clipPath id="clip0_97_606">
<rect width="190" height="35.6436" fill="white"/>
</clipPath>
</defs>
</svg>
