<svg width="24" height="24" viewBox="0 0 24 24" fill="none" xmlns="http://www.w3.org/2000/svg">
<g clip-path="url(#clip0_339_396)">
<path d="M1.99661 3.55037C2.04934 3.55012 2.04934 3.55012 2.10313 3.54987C2.22102 3.54943 2.3389 3.54966 2.45679 3.54989C2.54213 3.54972 2.62746 3.5495 2.7128 3.54925C2.94739 3.54867 3.18199 3.54869 3.41658 3.5488C3.66956 3.54882 3.92254 3.5483 4.17552 3.54785C4.67121 3.54707 5.1669 3.54682 5.6626 3.54676C6.06552 3.54672 6.46845 3.54653 6.87138 3.54623C8.01363 3.5454 9.15588 3.54497 10.2981 3.54504C10.3597 3.54505 10.4213 3.54505 10.4848 3.54505C10.5773 3.54506 10.5773 3.54506 10.6716 3.54507C11.671 3.5451 12.6703 3.54421 13.6696 3.54288C14.6956 3.54154 15.7215 3.54089 16.7475 3.54097C17.3236 3.541 17.8996 3.54074 18.4757 3.53974C18.9662 3.53888 19.4567 3.53868 19.9472 3.53932C20.1974 3.53962 20.4476 3.53963 20.6978 3.53881C20.927 3.53808 21.1562 3.53821 21.3854 3.53903C21.4682 3.53917 21.551 3.539 21.6338 3.53848C22.3333 3.53435 22.8511 3.65148 23.3899 4.12493C23.6112 4.36024 23.7834 4.62256 23.9055 4.9218C23.9215 4.95889 23.9375 4.99598 23.954 5.03419C24.0181 5.27352 24.0125 5.50273 24.0118 5.74947C24.012 5.80486 24.0122 5.86025 24.0124 5.91731C24.0129 6.07068 24.013 6.22403 24.0129 6.37739C24.0129 6.54295 24.0134 6.7085 24.0138 6.87406C24.0146 7.1983 24.0149 7.52253 24.0149 7.84677C24.015 8.11044 24.0151 8.3741 24.0154 8.63776C24.0163 9.38573 24.0167 10.1337 24.0166 10.8817C24.0166 10.9421 24.0166 10.9421 24.0166 11.0038C24.0166 11.0442 24.0166 11.0845 24.0166 11.1261C24.0166 11.7799 24.0175 12.4336 24.0188 13.0874C24.0201 13.7591 24.0208 14.4308 24.0207 15.1026C24.0207 15.4795 24.0209 15.8564 24.0219 16.2334C24.0228 16.5544 24.023 16.8754 24.0224 17.1964C24.0221 17.36 24.022 17.5237 24.0229 17.6873C24.0236 17.8651 24.0231 18.0428 24.0224 18.2206C24.0229 18.2718 24.0234 18.323 24.0239 18.3758C24.0187 18.9506 23.8141 19.3986 23.4367 19.8281C23.0351 20.2059 22.5591 20.4528 22.0019 20.4495C21.9667 20.4496 21.9316 20.4498 21.8954 20.45C21.7775 20.4504 21.6596 20.4502 21.5417 20.45C21.4564 20.4501 21.371 20.4504 21.2857 20.4506C21.0511 20.4512 20.8165 20.4512 20.5819 20.4511C20.3289 20.451 20.076 20.4516 19.823 20.452C19.3273 20.4528 18.8316 20.453 18.3359 20.4531C17.933 20.4531 17.53 20.4533 17.1271 20.4536C15.9849 20.4544 14.8426 20.4549 13.7004 20.4548C13.6388 20.4548 13.5772 20.4548 13.5137 20.4548C13.4521 20.4548 13.3904 20.4548 13.3269 20.4548C12.3275 20.4547 11.3282 20.4556 10.3289 20.457C9.30293 20.4583 8.27695 20.459 7.25098 20.4589C6.67492 20.4588 6.09888 20.4591 5.52282 20.4601C5.03232 20.461 4.54183 20.4612 4.05133 20.4605C3.80111 20.4602 3.5509 20.4602 3.30068 20.461C3.07146 20.4618 2.84227 20.4616 2.61305 20.4608C2.53028 20.4607 2.44751 20.4609 2.36473 20.4614C1.66519 20.4655 1.14744 20.3484 0.608624 19.8749C0.387272 19.6396 0.215127 19.3773 0.0929992 19.0781C0.0769922 19.041 0.0609852 19.0039 0.0444931 18.9657C-0.0196312 18.7263 -0.013979 18.4971 -0.0132864 18.2504C-0.0134987 18.195 -0.0137111 18.1396 -0.0139299 18.0825C-0.0144202 17.9292 -0.0144912 17.7758 -0.0143805 17.6225C-0.0143614 17.4569 -0.014879 17.2914 -0.0153234 17.1258C-0.0161016 16.8016 -0.0163597 16.4773 -0.016412 16.1531C-0.0164566 15.8894 -0.0166494 15.6258 -0.0169465 15.3621C-0.017772 14.6141 -0.0182045 13.8662 -0.0181342 13.1182C-0.0181304 13.0779 -0.0181268 13.0376 -0.0181229 12.996C-0.0181191 12.9557 -0.0181152 12.9153 -0.0181113 12.8737C-0.0180732 12.22 -0.0189699 11.5662 -0.0202921 10.9124C-0.0216399 10.2407 -0.0222862 9.56901 -0.0222052 8.89729C-0.0221741 8.52035 -0.02243 8.14342 -0.0234407 7.76648C-0.0242958 7.44547 -0.0244969 7.12447 -0.0238616 6.80347C-0.0235562 6.63982 -0.0235474 6.47619 -0.0243635 6.31255C-0.0250883 6.13477 -0.0246511 5.95702 -0.0239294 5.77924C-0.0244116 5.72804 -0.0248938 5.67684 -0.0253906 5.62409C-0.0202499 5.0493 0.184359 4.60129 0.561749 4.1718C0.963417 3.79397 1.43942 3.54705 1.99661 3.55037ZM2.48362 4.96868C2.66651 5.18204 2.84706 5.38579 3.04531 5.58319C3.08547 5.62346 3.08547 5.62346 3.12644 5.66454C3.21528 5.75356 3.30427 5.84241 3.39327 5.93126C3.45737 5.99542 3.52145 6.05959 3.58553 6.12377C3.75898 6.29743 3.93257 6.47095 4.1062 6.64442C4.28827 6.82638 4.47023 7.00844 4.6522 7.19049C4.95781 7.49619 5.26353 7.80179 5.56929 8.10733C5.92224 8.46002 6.27501 8.81288 6.6277 9.16583C6.93105 9.46939 7.23449 9.77285 7.538 10.0762C7.71904 10.2572 7.90005 10.4382 8.08097 10.6193C8.25116 10.7896 8.42146 10.9598 8.59184 11.1299C8.65416 11.1922 8.71644 11.2545 8.77868 11.3168C9.19316 11.7334 9.19316 11.7334 9.63048 12.1256C9.74164 12.2212 9.84112 12.3268 9.94151 12.4335C10.5613 13.0812 11.0892 13.6139 12.0461 13.6406C12.8681 13.6153 13.4059 13.1244 13.9387 12.5624C14.0239 12.4742 14.1093 12.3862 14.1948 12.2983C14.2473 12.2441 14.2996 12.1897 14.3516 12.135C14.4741 12.0072 14.5986 11.8866 14.7341 11.7725C15.036 11.5096 15.3147 11.2223 15.5974 10.9391C15.6621 10.8745 15.7268 10.8099 15.7915 10.7452C15.9663 10.5707 16.1409 10.3959 16.3156 10.2212C16.4984 10.0382 16.6814 9.85533 16.8643 9.67245C17.1711 9.36574 17.4778 9.05893 17.7845 8.75207C18.1394 8.39685 18.4946 8.04181 18.8498 7.68685C19.1548 7.38203 19.4597 7.07713 19.7646 6.77215C19.9467 6.58999 20.1288 6.40787 20.311 6.22583C20.4819 6.05503 20.6527 5.88411 20.8235 5.71311C20.8863 5.6502 20.9492 5.58733 21.0121 5.5245C21.0976 5.43915 21.183 5.35365 21.2683 5.26812C21.2935 5.24294 21.3188 5.21777 21.3449 5.19183C21.4625 5.09645 21.4625 5.09645 21.5149 4.96868C15.2346 4.96868 8.95425 4.96868 2.48362 4.96868ZM1.4055 6.0468C1.4055 9.99133 1.4055 13.9359 1.4055 17.9999C1.60933 17.8252 1.80014 17.658 1.98841 17.4695C2.01185 17.4461 2.03529 17.4227 2.05944 17.3986C2.13692 17.3212 2.21423 17.2437 2.29154 17.1661C2.34745 17.1102 2.40338 17.0542 2.45932 16.9983C2.61039 16.8473 2.76131 16.6961 2.91221 16.5448C3.07022 16.3865 3.22835 16.2284 3.38648 16.0702C3.68555 15.771 3.9845 15.4716 4.28341 15.1723C4.62386 14.8313 4.96444 14.4905 5.30503 14.1496C6.00533 13.4488 6.70547 12.7479 7.4055 12.0468C7.33256 11.8725 7.22584 11.7616 7.09301 11.6287C7.07061 11.6061 7.04821 11.5836 7.02512 11.5603C6.95007 11.4849 6.87469 11.4098 6.79931 11.3347C6.74539 11.2807 6.69149 11.2266 6.63761 11.1725C6.49118 11.0257 6.34446 10.8791 6.19767 10.7326C6.04393 10.5791 5.89042 10.4254 5.73688 10.2717C5.47878 10.0134 5.22048 9.75536 4.96207 9.4974C4.66384 9.19968 4.36595 8.90162 4.06823 8.60339C3.81234 8.34708 3.55628 8.09095 3.30006 7.83498C3.14716 7.68222 2.99432 7.5294 2.84165 7.37642C2.69789 7.23239 2.5539 7.08859 2.40973 6.94497C2.35705 6.8924 2.30444 6.83976 2.25192 6.78704C2.17981 6.71467 2.10742 6.6426 2.03495 6.5706C1.97447 6.51017 1.97447 6.51017 1.91276 6.44852C1.7533 6.30328 1.57805 6.17621 1.4055 6.0468ZM22.2439 6.32294C22.211 6.35389 22.178 6.38485 22.1441 6.41675C21.6427 6.89165 21.1571 7.38299 20.6694 7.87188C20.5257 8.01591 20.3818 8.15981 20.2379 8.30373C19.9668 8.57504 19.6957 8.84647 19.4247 9.11795C19.1157 9.42753 18.8065 9.73697 18.4973 10.0464C17.8624 10.6818 17.2276 11.3174 16.593 11.9531C16.6674 12.1339 16.7828 12.2482 16.9202 12.3855C16.9561 12.4217 16.9561 12.4217 16.9928 12.4585C17.0732 12.5392 17.1538 12.6194 17.2345 12.6997C17.2922 12.7574 17.3499 12.8152 17.4075 12.873C17.5641 13.0298 17.721 13.1863 17.8779 13.3427C18.0419 13.5063 18.2056 13.6701 18.3694 13.8339C18.6443 14.1088 18.9194 14.3835 19.1946 14.6581C19.5133 14.976 19.8317 15.2942 20.15 15.6125C20.4558 15.9183 20.7617 16.224 21.0677 16.5296C21.1981 16.6599 21.3285 16.7902 21.4589 16.9205C21.6122 17.0738 21.7656 17.2269 21.9191 17.3799C21.9756 17.4363 22.032 17.4926 22.0884 17.5491C22.1651 17.6257 22.2418 17.7023 22.3187 17.7787C22.3617 17.8217 22.4048 17.8647 22.4491 17.9089C22.5297 18.0053 22.5297 18.0053 22.593 17.9999C22.593 14.0554 22.593 10.1109 22.593 6.0468C22.4765 6.0468 22.3294 6.24253 22.2439 6.32294ZM8.35875 13.1485C8.32841 13.1804 8.29808 13.2122 8.26683 13.245C8.14945 13.3679 8.02882 13.4821 7.89955 13.5921C7.64398 13.8151 7.40597 14.0554 7.16655 14.2953C7.11524 14.3466 7.06392 14.3978 7.0126 14.449C6.87431 14.5871 6.73617 14.7253 6.59806 14.8636C6.45331 15.0084 6.30844 15.1532 6.16359 15.298C5.92079 15.5407 5.67809 15.7835 5.43544 16.0264C5.15461 16.3075 4.87361 16.5884 4.59253 16.8692C4.35099 17.1105 4.10955 17.3519 3.86818 17.5934C3.72409 17.7376 3.57997 17.8817 3.43576 18.0258C3.30053 18.1609 3.16541 18.2961 3.03038 18.4314C2.98069 18.4811 2.93095 18.5309 2.88117 18.5805C2.81355 18.648 2.74609 18.7157 2.67863 18.7833C2.62181 18.8402 2.62181 18.8402 2.56384 18.8982C2.4783 18.9704 2.4783 18.9704 2.48362 19.0312C8.76394 19.0312 15.0442 19.0312 21.5149 19.0312C21.3464 18.8346 21.1862 18.6498 21.0048 18.4683C20.9612 18.4245 20.9175 18.3808 20.8726 18.3357C20.8251 18.2882 20.7775 18.2408 20.73 18.1934C20.6793 18.1426 20.6286 18.0918 20.5779 18.041C20.441 17.9039 20.3039 17.7669 20.1668 17.6299C20.0228 17.4861 19.879 17.3421 19.7351 17.1982C19.4935 16.9565 19.2518 16.7149 19.01 16.4733C18.7312 16.1947 18.4525 15.916 18.174 15.6372C17.9341 15.3971 17.6942 15.1572 17.4542 14.9173C17.3111 14.7743 17.1681 14.6313 17.0251 14.4882C16.8907 14.3536 16.7561 14.2191 16.6214 14.0847C16.5722 14.0356 16.5231 13.9864 16.474 13.9372C16.0175 13.446 16.0175 13.446 15.468 13.0781C15.4414 13.1054 15.4147 13.1328 15.3873 13.161C14.3887 14.1835 13.4659 15.028 11.954 15.0481C10.6469 15.0305 9.76463 14.3234 8.89378 13.4413C8.85911 13.4055 8.82444 13.3697 8.78872 13.3329C8.75644 13.2998 8.72416 13.2667 8.6909 13.2326C8.66218 13.2028 8.63347 13.173 8.60388 13.1423C8.49833 13.0499 8.46213 13.0551 8.35875 13.1485Z" fill="white"/>
</g>
<defs>
<clipPath id="clip0_339_396">
<rect width="24" height="24" fill="white"/>
</clipPath>
</defs>
</svg>
