<svg width="60" height="60" viewBox="0 0 60 60" fill="none" xmlns="http://www.w3.org/2000/svg">
    <path d="M42.5251 54.2156H17.4751V17.5312C17.4751 11.0531 22.7345 5.7937 29.2126 5.7937H30.797C37.2751 5.7937 42.5345 11.0531 42.5345 17.5312V54.2156H42.5251Z"
          stroke="#b88c2a" stroke-width="2" stroke-miterlimit="10" stroke-linecap="round" stroke-linejoin="round"/>
    <path d="M55.0595 5.7937V54.2156H42.5251V18.3187C42.5251 11.4 48.1408 5.7937 55.0595 5.7937Z" stroke="#b88c2a"
          stroke-width="2" stroke-miterlimit="10" stroke-linecap="round" stroke-linejoin="round"/>
    <path d="M30 5.78442V54.2157" stroke="#b88c2a" stroke-width="2" stroke-miterlimit="10" stroke-linecap="round"
          stroke-linejoin="round"/>
    <path d="M17.4751 23.9907H42.5251" stroke="#b88c2a" stroke-width="2" stroke-miterlimit="10" stroke-linecap="round"
          stroke-linejoin="round"/>
    <path d="M17.4751 38.1843H42.5251" stroke="#b88c2a" stroke-width="2" stroke-miterlimit="10" stroke-linecap="round"
          stroke-linejoin="round"/>
    <path d="M42.5251 33.2908H55.0595" stroke="#b88c2a" stroke-width="2" stroke-miterlimit="10" stroke-linecap="round"
          stroke-linejoin="round"/>
    <path d="M4.94067 5.7937V54.2156H17.4657V18.3187C17.475 11.4 11.8594 5.7937 4.94067 5.7937Z" stroke="#b88c2a"
          stroke-width="2" stroke-miterlimit="10" stroke-linecap="round" stroke-linejoin="round"/>
    <path d="M17.475 33.2908H4.94067" stroke="#b88c2a" stroke-width="2" stroke-miterlimit="10" stroke-linecap="round"
          stroke-linejoin="round"/>
    <path d="M42.5251 29.7656H55.0595" stroke="#b88c2a" stroke-width="2" stroke-miterlimit="10" stroke-linecap="round"
          stroke-linejoin="round"/>
    <path d="M17.475 29.7656H4.94067" stroke="#b88c2a" stroke-width="2" stroke-miterlimit="10" stroke-linecap="round"
          stroke-linejoin="round"/>
</svg>
