<svg width="25" height="24" viewBox="0 0 25 24" fill="none" xmlns="http://www.w3.org/2000/svg">
<path d="M4.51743 2.01813C4.57169 2.01792 4.62594 2.01771 4.68184 2.0175C4.77202 2.01751 4.77202 2.01751 4.86402 2.01752C4.92812 2.01737 4.99223 2.01719 5.05634 2.017C5.23311 2.01653 5.40988 2.01636 5.58665 2.01623C5.77707 2.01605 5.96748 2.0156 6.15789 2.01519C6.61802 2.01426 7.07815 2.01379 7.53828 2.01338C7.75481 2.01317 7.97133 2.01292 8.18786 2.01267C8.90736 2.01188 9.62686 2.0112 10.3464 2.01086C10.5331 2.01077 10.7199 2.01068 10.9067 2.01059C10.9764 2.01055 10.9764 2.01055 11.0474 2.01052C11.7999 2.01013 12.5524 2.00894 13.3048 2.00742C14.0769 2.00587 14.8489 2.00502 15.6209 2.00487C16.0546 2.00477 16.4883 2.00436 16.922 2.00316C17.2912 2.00215 17.6605 2.00177 18.0298 2.00223C18.2182 2.00244 18.4067 2.00235 18.5952 2.00144C18.7677 2.00062 18.9401 2.00066 19.1126 2.00139C19.2047 2.00155 19.2968 2.00079 19.3889 2C19.4708 2.0006 19.4708 2.0006 19.5544 2.00122C19.6015 2.00117 19.6487 2.00113 19.6972 2.00108C19.9534 2.0475 20.0991 2.24786 20.2537 2.44337C20.2901 2.48875 20.3265 2.53412 20.364 2.58088C20.3831 2.6048 20.4023 2.62872 20.4221 2.65337C20.526 2.78142 20.6331 2.90671 20.7401 3.03223C20.9333 3.25953 21.123 3.48934 21.3114 3.72071C21.432 3.86745 21.5546 4.01247 21.6776 4.15723C21.8707 4.38456 22.0605 4.61434 22.2489 4.84571C22.3695 4.99245 22.4921 5.13747 22.6151 5.28223C22.808 5.5093 22.9977 5.73875 23.1856 5.96998C23.2878 6.09408 23.3915 6.21663 23.4959 6.33881C23.6015 6.46257 23.7059 6.58725 23.8104 6.71192C23.8384 6.74437 23.8663 6.77682 23.8952 6.81025C24.0197 6.96511 24.091 7.10926 24.0755 7.31196C24.0126 7.52275 23.8685 7.68371 23.7321 7.85269C23.6405 7.96725 23.5522 8.08429 23.4635 8.20113C23.3861 8.30299 23.3082 8.40452 23.2303 8.50599C23.048 8.74343 22.8667 8.98156 22.6854 9.21973C22.4347 9.54888 22.1837 9.87775 21.9323 10.2063C21.7298 10.4709 21.5279 10.7359 21.326 11.001C21.0753 11.3301 20.8243 11.659 20.5729 11.9876C20.3705 12.2522 20.1685 12.5172 19.9666 12.7822C19.7404 13.0793 19.5139 13.3763 19.2869 13.6729C18.9347 14.1332 18.5835 14.5945 18.2323 15.0557C17.8566 15.5489 17.4809 16.0421 17.1041 16.5345C16.9017 16.7991 16.6997 17.0641 16.4979 17.3291C16.2472 17.6583 15.9962 17.9871 15.7448 18.3157C15.5423 18.5803 15.3404 18.8453 15.1385 19.1104C14.8878 19.4395 14.6368 19.7684 14.3854 20.0969C14.1509 20.4034 13.9171 20.7104 13.6834 21.0174C13.4574 21.3141 13.231 21.6104 13.004 21.9063C12.8909 22.0539 12.7785 22.202 12.6682 22.3517C12.6489 22.3779 12.6295 22.4041 12.6095 22.4311C12.5586 22.5003 12.508 22.5696 12.4575 22.639C12.3294 22.7968 12.254 22.8345 12.0506 22.8574C11.8994 22.8666 11.8614 22.8405 11.7443 22.7384C11.6118 22.5902 11.4855 22.4391 11.3621 22.2832C11.3378 22.2526 11.3134 22.222 11.2883 22.1904C11.0673 21.9111 10.8537 21.6264 10.6409 21.3408C10.4971 21.1479 10.3513 20.9566 10.2049 20.7656C9.97396 20.4642 9.74353 20.1625 9.51351 19.8604C9.28725 19.5633 9.06078 19.2663 8.83382 18.9697C8.5746 18.631 8.31607 18.2917 8.05764 17.9524C7.86352 17.6975 7.66914 17.4429 7.47445 17.1885C7.21522 16.8497 6.95669 16.5105 6.69826 16.1712C6.50414 15.9163 6.30976 15.6616 6.11507 15.4072C5.85585 15.0685 5.59732 14.7292 5.33889 14.3899C5.14477 14.135 4.95039 13.8804 4.7557 13.626C4.49647 13.2872 4.23794 12.948 3.97951 12.6086C3.78539 12.3538 3.59101 12.0991 3.39632 11.8447C3.1371 11.506 2.87857 11.1667 2.62014 10.8274C2.42602 10.5725 2.23164 10.3179 2.03695 10.0635C1.77802 9.72514 1.51971 9.38632 1.26169 9.04728C1.08487 8.81502 0.907481 8.58321 0.729423 8.35189C0.631148 8.22388 0.533574 8.09535 0.436146 7.9667C0.37894 7.89173 0.320674 7.81758 0.262287 7.74354C-0.0148846 7.37878 -0.0148846 7.37878 0.0103338 7.13581C0.0907061 6.91222 0.263752 6.74551 0.419758 6.5713C0.483263 6.49698 0.546208 6.42221 0.609123 6.34739C0.67507 6.26903 0.741391 6.19099 0.807758 6.11298C0.922227 5.97799 1.03461 5.8414 1.14632 5.70411C1.322 5.48827 1.50116 5.27566 1.68135 5.06361C1.81722 4.90346 1.95124 4.742 2.08382 4.57911C2.2595 4.36327 2.43866 4.15066 2.61885 3.93861C2.75472 3.77846 2.88874 3.617 3.02132 3.45411C3.19668 3.23867 3.37537 3.02634 3.55543 2.81484C3.73627 2.60198 3.91207 2.38545 4.08644 2.16724C4.22272 2.0103 4.31661 2.01849 4.51743 2.01813ZM5.20101 2.86817C5.40678 3.24542 5.61477 3.62021 5.82796 3.99317C5.84392 4.02111 5.85987 4.04904 5.87631 4.07782C6.18277 4.614 6.49637 5.14576 6.81252 5.67628C6.98032 5.95792 7.14569 6.24095 7.31038 6.52442C7.54483 6.32787 7.76535 6.12308 7.98127 5.90647C8.01378 5.87405 8.04629 5.84162 8.07978 5.80821C8.18617 5.70203 8.29238 5.59569 8.39858 5.48933C8.47272 5.41522 8.54687 5.34111 8.62102 5.26702C8.77582 5.11229 8.93054 4.95747 9.08519 4.8026C9.28391 4.60361 9.48284 4.40484 9.68183 4.20612C9.83468 4.05345 9.98741 3.90066 10.1401 3.74784C10.2135 3.67444 10.2869 3.60108 10.3603 3.52776C10.4624 3.42576 10.5644 3.32361 10.6663 3.22142C10.7122 3.17565 10.7122 3.17565 10.7591 3.12896C10.8996 3.01617 10.8996 3.01617 10.9666 2.86817C9.06398 2.86817 7.16132 2.86817 5.20101 2.86817ZM13.1229 2.86817C13.3381 3.12202 13.3381 3.12202 13.5643 3.3621C13.5927 3.39056 13.6211 3.41901 13.6503 3.44833C13.6804 3.47827 13.7106 3.50821 13.7416 3.53906C13.7741 3.57157 13.8066 3.60408 13.8401 3.63757C13.9465 3.74395 14.053 3.85016 14.1596 3.95637C14.2339 4.03051 14.3081 4.10465 14.3823 4.17881C14.5768 4.37319 14.7715 4.56742 14.9662 4.76162C15.1652 4.96013 15.3641 5.15877 15.5629 5.3574C15.9526 5.74654 16.3424 6.13553 16.7323 6.52442C16.8579 6.36963 16.9671 6.21855 17.0655 6.04505C17.0928 5.99732 17.12 5.94959 17.1481 5.90041C17.1917 5.82354 17.1917 5.82354 17.2362 5.74512C17.2991 5.63504 17.3621 5.52499 17.4251 5.41499C17.4413 5.38672 17.4575 5.35845 17.4742 5.32933C17.6496 5.02371 17.8294 4.72078 18.0096 4.41798C18.2337 4.04088 18.4572 3.6635 18.6776 3.28419C18.6993 3.24697 18.721 3.20975 18.7434 3.17141C18.843 3.02805 18.843 3.02805 18.8885 2.86817C16.9859 2.86817 15.0832 2.86817 13.1229 2.86817ZM11.9285 3.11337C11.9013 3.14062 11.8741 3.16787 11.846 3.19594C11.8147 3.22703 11.7834 3.25812 11.7512 3.29016C11.7169 3.32471 11.6826 3.35926 11.6473 3.39486C11.6112 3.43091 11.575 3.46695 11.5378 3.50409C11.4179 3.62386 11.2983 3.74396 11.1787 3.86408C11.0958 3.94701 11.0129 4.02992 10.93 4.11282C10.7561 4.28682 10.5823 4.46096 10.4087 4.63524C10.2076 4.83702 10.0063 5.03854 9.80492 5.23993C9.61149 5.43334 9.41819 5.62688 9.22497 5.82049C9.14257 5.90303 9.06015 5.98555 8.9777 6.06804C8.86275 6.18309 8.74795 6.29829 8.63321 6.41354C8.59873 6.448 8.56425 6.48246 8.52872 6.51796C8.4977 6.54918 8.46668 6.58041 8.43471 6.61257C8.40753 6.63984 8.38034 6.6671 8.35233 6.6952C8.28951 6.75029 8.28951 6.75029 8.29476 6.80567C10.7698 6.80567 13.2448 6.80567 15.7948 6.80567C15.578 6.55025 15.578 6.55025 15.3504 6.30818C15.3214 6.27894 15.2923 6.24969 15.2624 6.21956C15.2316 6.18875 15.2007 6.15793 15.1689 6.12618C15.1357 6.09275 15.1024 6.05933 15.0681 6.0249C14.9592 5.91546 14.85 5.8062 14.7408 5.69697C14.6647 5.62072 14.5886 5.54447 14.5125 5.46822C14.3536 5.309 14.1946 5.14988 14.0355 4.99081C13.8311 4.7865 13.6271 4.58186 13.4232 4.37714C13.2665 4.21988 13.1095 4.06282 12.9525 3.90583C12.8772 3.83042 12.8019 3.75493 12.7267 3.67936C12.622 3.57421 12.517 3.46936 12.4119 3.36458C12.3651 3.31736 12.3651 3.31736 12.3173 3.26918C12.2888 3.24087 12.2603 3.21255 12.2309 3.18337C12.2061 3.15856 12.1814 3.13376 12.1558 3.1082C12.0621 3.03148 12.0207 3.03669 11.9285 3.11337ZM4.35726 3.1963C4.09687 3.46424 3.86012 3.75372 3.6252 4.04389C3.50378 4.19259 3.38006 4.33913 3.2557 4.48536C3.09759 4.6714 2.94108 4.85849 2.78695 5.04786C2.63281 5.23723 2.47628 5.4243 2.3182 5.61036C1.98662 6.00101 1.66485 6.39555 1.35726 6.80567C3.04335 6.80567 4.72945 6.80567 6.46663 6.80567C6.40124 6.60949 6.35537 6.47973 6.2535 6.31092C6.2297 6.27111 6.2059 6.2313 6.18138 6.19029C6.15563 6.1478 6.12988 6.10531 6.10335 6.06153C6.04777 5.96872 5.99223 5.87588 5.93673 5.78303C5.90804 5.73516 5.87935 5.6873 5.8498 5.63798C5.71171 5.40625 5.57662 5.17279 5.44124 4.93946C5.20225 4.52895 4.96103 4.11981 4.71761 3.71192C4.68701 3.66039 4.65641 3.60886 4.62489 3.55577C4.59669 3.50868 4.5685 3.4616 4.53945 3.41309C4.51441 3.37116 4.48938 3.32922 4.46358 3.28602C4.44397 3.25641 4.42435 3.2268 4.40413 3.1963C4.38866 3.1963 4.3732 3.1963 4.35726 3.1963ZM19.6854 3.1963C19.6452 3.25706 19.6074 3.31945 19.5706 3.38233C19.5346 3.44341 19.5346 3.44341 19.498 3.50572C19.4718 3.55056 19.4457 3.59541 19.4188 3.64161C19.3916 3.68796 19.3644 3.73432 19.3364 3.78207C19.2494 3.93045 19.1627 4.07899 19.076 4.22755C19.0216 4.32069 18.9671 4.41383 18.9127 4.50697C18.7765 4.74003 18.6406 4.97324 18.5048 5.2065C18.3564 5.46129 18.2079 5.716 18.0594 5.97071C18.0318 6.01805 18.0042 6.06538 17.9758 6.11415C17.9501 6.15836 17.9243 6.20257 17.8977 6.24812C17.8751 6.28686 17.8526 6.3256 17.8293 6.36552C17.7823 6.44547 17.734 6.52463 17.6848 6.60321C17.6151 6.70465 17.6151 6.70465 17.6229 6.80567C19.309 6.80567 20.9951 6.80567 22.7323 6.80567C22.5457 6.55694 22.36 6.31996 22.1551 6.0879C21.9403 5.84237 21.7302 5.59399 21.5249 5.34046C21.4056 5.19458 21.284 5.0508 21.1619 4.90723C21.0038 4.72119 20.8473 4.5341 20.6932 4.34473C20.4944 4.10053 20.2914 3.86013 20.0875 3.62019C20.0248 3.54617 19.9622 3.47206 19.9008 3.39691C19.8456 3.32927 19.789 3.26268 19.7323 3.1963C19.7168 3.1963 19.7013 3.1963 19.6854 3.1963ZM1.31038 7.64942C1.48863 7.91679 1.66184 8.16763 1.86409 8.41407C2.06626 8.6637 2.26283 8.91625 2.45443 9.17414C2.61427 9.38893 2.77694 9.60157 2.93929 9.81446C2.97184 9.85716 3.0044 9.89986 3.03794 9.94385C3.25973 10.2346 3.48182 10.5252 3.70407 10.8156C3.9388 11.1224 4.17284 11.4297 4.40688 11.7371C4.601 11.9919 4.79538 12.2466 4.99007 12.501C5.24929 12.8397 5.50783 13.179 5.76625 13.5183C5.96037 13.7732 6.15475 14.0278 6.34945 14.2822C6.60867 14.621 6.8672 14.9602 7.12563 15.2996C7.31975 15.5544 7.51413 15.8091 7.70882 16.0635C7.96804 16.4022 8.22658 16.7415 8.485 17.0808C8.67912 17.3357 8.8735 17.5903 9.0682 17.8447C9.26295 18.0992 9.45739 18.3539 9.65155 18.6089C9.71532 18.6926 9.77912 18.7763 9.84294 18.86C9.99661 19.0616 10.15 19.2633 10.3027 19.4656C10.3307 19.5026 10.3588 19.5396 10.3877 19.5777C10.4404 19.6474 10.493 19.7171 10.5455 19.787C10.6639 19.9536 10.6639 19.9536 10.826 20.0713C10.7606 19.677 10.6436 19.3034 10.5202 18.924C10.4987 18.8572 10.4773 18.7905 10.4559 18.7238C10.4101 18.5813 10.3642 18.4389 10.3181 18.2966C10.2071 17.9533 10.0969 17.6098 9.98673 17.2663C9.96157 17.1879 9.93641 17.1095 9.91124 17.0312C9.67389 16.2918 9.44128 15.5511 9.21072 14.8096C8.85245 13.6576 8.48824 12.5075 8.12078 11.3584C7.80444 10.3691 7.49144 9.37886 7.18389 8.38679C7.17037 8.34324 7.15684 8.2997 7.1429 8.25484C7.11801 8.17468 7.09319 8.09449 7.06845 8.01429C7.01185 7.82801 7.01185 7.82801 6.93538 7.64942C5.07913 7.64942 3.22288 7.64942 1.31038 7.64942ZM7.82601 7.64942C7.93428 8.05045 7.93428 8.05045 8.05378 8.44706C8.06955 8.49659 8.08532 8.54611 8.10157 8.59714C8.11837 8.64954 8.13517 8.70194 8.15248 8.75593C8.18019 8.84283 8.20789 8.92973 8.23558 9.01664C8.26508 9.10917 8.29464 9.20168 8.3242 9.29419C8.43047 9.62676 8.53631 9.95947 8.64211 10.2922C8.65302 10.3265 8.66393 10.3608 8.67518 10.3961C8.89881 11.0994 9.11891 11.8038 9.33833 12.5084C9.68423 13.6192 10.0352 14.7283 10.3896 15.8364C10.7592 16.9921 11.1237 18.1492 11.484 19.3078C11.5125 19.3994 11.541 19.4909 11.5695 19.5825C11.6039 19.693 11.6383 19.8035 11.6725 19.914C11.7181 20.0603 11.7641 20.2065 11.8104 20.3525C11.8269 20.4055 11.8434 20.4584 11.8604 20.5129C11.8767 20.5642 11.8931 20.6154 11.91 20.6682C11.9246 20.7145 11.9392 20.7608 11.9543 20.8084C11.9873 20.9226 11.9873 20.9226 12.0916 20.9619C12.1011 20.9315 12.1105 20.9011 12.1203 20.8698C12.59 19.3598 13.063 17.8509 13.5448 16.3447C13.8864 15.2764 14.2242 14.207 14.5576 13.136C14.94 11.9079 15.3296 10.6821 15.7214 9.45694C15.8241 9.13573 15.9267 8.81447 16.0291 8.49317C16.0504 8.42669 16.0504 8.42669 16.072 8.35886C16.1068 8.24987 16.1413 8.14082 16.1758 8.03175C16.202 7.94895 16.202 7.94895 16.2288 7.86448C16.2678 7.74918 16.2678 7.74918 16.2635 7.64942C13.4791 7.64942 10.6948 7.64942 7.82601 7.64942ZM17.1541 7.64942C16.8308 8.61312 16.8308 8.61312 16.5222 9.58118C16.4863 9.69694 16.4503 9.81269 16.4143 9.92844C16.3864 10.0186 16.3584 10.1087 16.3305 10.1989C16.2385 10.4955 16.146 10.792 16.0535 11.0885C16.0429 11.1224 16.0323 11.1563 16.0215 11.1912C15.7881 11.9389 15.5501 12.6851 15.3115 13.4311C14.9191 14.6578 14.5312 15.8859 14.1486 17.1157C13.9812 17.6537 13.8134 18.1914 13.6409 18.7277C13.6136 18.8129 13.5862 18.8982 13.5589 18.9835C13.5102 19.1351 13.4611 19.2865 13.4116 19.4378C13.3907 19.5028 13.3699 19.5678 13.349 19.6328C13.3223 19.715 13.3223 19.715 13.2949 19.7988C13.2506 19.9333 13.2506 19.9333 13.3104 20.0713C13.6048 19.7203 13.882 19.3591 14.1556 18.9919C14.3347 18.7516 14.5179 18.5146 14.701 18.2774C14.8179 18.1257 14.9343 17.9735 15.0506 17.8213C15.0886 17.7716 15.0886 17.7716 15.1273 17.721C15.3667 17.4078 15.6055 17.0942 15.8443 16.7806C16.0629 16.4937 16.2818 16.2071 16.501 15.9207C16.7034 15.656 16.9054 15.391 17.1073 15.126C17.3579 14.7968 17.6089 14.468 17.8604 14.1394C18.0628 13.8748 18.2648 13.6098 18.4666 13.3447C18.7173 13.0156 18.9683 12.6867 19.2197 12.3582C19.4222 12.0935 19.6241 11.8285 19.826 11.5635C20.0767 11.2343 20.3277 10.9055 20.5791 10.5769C20.7816 10.3123 20.9835 10.0473 21.1854 9.78223C21.4146 9.48125 21.644 9.1804 21.8739 8.87989C21.898 8.84829 21.9222 8.81669 21.947 8.78413C22.0787 8.61193 22.2107 8.44 22.343 8.26832C22.3713 8.23144 22.3997 8.19457 22.4289 8.15658C22.4837 8.08537 22.5385 8.01423 22.5935 7.94317C22.6178 7.91149 22.6422 7.87981 22.6673 7.84718C22.6997 7.80507 22.6997 7.80507 22.7329 7.76212C22.7836 7.70331 22.7836 7.70331 22.7791 7.64942C20.9229 7.64942 19.0666 7.64942 17.1541 7.64942ZM10.826 20.0713C10.8729 20.165 10.8729 20.165 10.8729 20.165L10.826 20.0713ZM13.2166 20.0713C13.2635 20.165 13.2635 20.165 13.2635 20.165L13.2166 20.0713Z" fill="#474749"/>
</svg>
