<svg width="28" height="28" viewBox="0 0 28 28" fill="none" xmlns="http://www.w3.org/2000/svg">
<path d="M6.17391 11C8.99085 11 11.3478 8.80111 11.3478 6C11.3478 3.19889 8.99085 1 6.17391 1C3.35698 1 1 3.19889 1 6C1 8.80111 3.35698 11 6.17391 11Z" stroke="#474749" stroke-width="2"/>
<path d="M6.17391 27C8.99085 27 11.3478 24.8011 11.3478 22C11.3478 19.1989 8.99085 17 6.17391 17C3.35698 17 1 19.1989 1 22C1 24.8011 3.35698 27 6.17391 27Z" stroke="#474749" stroke-width="2"/>
<path d="M21.8263 11C24.6432 11 27.0002 8.80111 27.0002 6C27.0002 3.19889 24.6432 1 21.8263 1C19.0093 1 16.6523 3.19889 16.6523 6C16.6523 8.80111 19.0093 11 21.8263 11Z" stroke="#474749" stroke-width="2"/>
<path d="M21.8263 27C24.6432 27 27.0002 24.8011 27.0002 22C27.0002 19.1989 24.6432 17 21.8263 17C19.0093 17 16.6523 19.1989 16.6523 22C16.6523 24.8011 19.0093 27 21.8263 27Z" stroke="#474749" stroke-width="2"/>
</svg>
