<svg width="24" height="24" viewBox="0 0 24 24" fill="none" xmlns="http://www.w3.org/2000/svg">
<path d="M12.2312 22.8317L12.7209 23.7035L12.7209 23.7035L12.2312 22.8317ZM11.3736 22.8317L10.8839 23.7035L10.8839 23.7035L11.3736 22.8317ZM19.6048 10.6519C19.6048 13.8219 18.1134 16.389 16.3423 18.3228C14.5692 20.259 12.5763 21.4909 11.7415 21.9598L12.7209 23.7035C13.6508 23.1812 15.8447 21.8274 17.8172 19.6736C19.7918 17.5175 21.6048 14.4903 21.6048 10.6519H19.6048ZM11.8024 2C16.0269 2 19.6048 5.78487 19.6048 10.6519H21.6048C21.6048 4.8577 17.3009 0 11.8024 0V2ZM4 10.6519C4 5.78487 7.57797 2 11.8024 2V0C6.30398 0 2 4.8577 2 10.6519H4ZM11.8634 21.9598C11.0286 21.4909 9.03568 20.259 7.26254 18.3228C5.49148 16.389 4 13.8219 4 10.6519H2C2 14.4903 3.813 17.5175 5.7876 19.6736C7.76012 21.8274 9.95406 23.1812 10.8839 23.7035L11.8634 21.9598ZM11.7415 21.9598C11.754 21.9527 11.7755 21.9454 11.8024 21.9454C11.8293 21.9454 11.8508 21.9527 11.8634 21.9598L10.8839 23.7035C11.458 24.026 12.1468 24.026 12.7209 23.7035L11.7415 21.9598ZM14.5801 10.6547C14.5801 12.4756 13.2541 13.7912 11.8076 13.7912V15.7912C14.5281 15.7912 16.5801 13.4028 16.5801 10.6547H14.5801ZM11.8076 7.51818C13.2541 7.51818 14.5801 8.83375 14.5801 10.6547H16.5801C16.5801 7.90657 14.5281 5.51818 11.8076 5.51818V7.51818ZM9.03513 10.6547C9.03513 8.83375 10.3611 7.51818 11.8076 7.51818V5.51818C9.08713 5.51818 7.03513 7.90657 7.03513 10.6547H9.03513ZM11.8076 13.7912C10.3611 13.7912 9.03513 12.4756 9.03513 10.6547H7.03513C7.03513 13.4028 9.08713 15.7912 11.8076 15.7912V13.7912Z" fill="white"/>
</svg>
