<svg width="24" height="24" viewBox="0 0 24 24" fill="none" xmlns="http://www.w3.org/2000/svg">
<g clip-path="url(#clip0_1410_95)">
<path d="M11.5764 1.96875C11.8548 1.96875 12.1333 1.96875 12.4201 1.96875C12.4201 3.03609 12.4201 4.10344 12.4201 5.20312C12.6522 5.20312 12.8842 5.20312 13.1233 5.20312C13.3067 5.21694 13.4861 5.23292 13.6682 5.25586C13.7173 5.26198 13.7665 5.2681 13.8171 5.2744C16.4267 5.62029 18.855 6.64649 20.9045 8.29688C20.9287 8.31619 20.9529 8.3355 20.9779 8.3554C21.3717 8.67228 21.7329 9.02182 22.091 9.37793C22.1341 9.42057 22.1772 9.46322 22.2216 9.50716C22.5055 9.79242 22.7646 10.0904 23.0139 10.4062C23.0367 10.4347 23.0596 10.4632 23.0831 10.4926C24.0175 11.6618 24.0175 11.6618 24.0112 12.0876C23.99 12.2512 23.9071 12.3727 23.8137 12.5039C23.7851 12.546 23.7851 12.546 23.756 12.5889C23.6972 12.6747 23.6371 12.7593 23.5764 12.8438C23.541 12.893 23.5057 12.9422 23.4693 12.993C22.7283 13.9979 21.8576 14.9945 20.8576 15.75C20.801 15.7939 20.7443 15.8379 20.6877 15.8818C18.6104 17.4811 16.1538 18.4683 13.5481 18.7617C13.5154 18.7655 13.4828 18.7692 13.4492 18.7731C13.1034 18.8076 12.7727 18.7969 12.4201 18.7969C12.4201 19.8642 12.4201 20.9316 12.4201 22.0312C12.1417 22.0312 11.8633 22.0312 11.5764 22.0312C11.5764 20.9639 11.5764 19.8966 11.5764 18.7969C11.3444 18.7969 11.1123 18.7969 10.8733 18.7969C10.686 18.782 10.5026 18.765 10.3166 18.7412C10.2669 18.7349 10.2171 18.7287 10.1658 18.7222C8.80265 18.5419 7.48832 18.1873 6.23263 17.625C6.19071 17.6063 6.14878 17.5875 6.10558 17.5682C5.0167 17.0764 4.0222 16.4522 3.09201 15.7031C3.0678 15.6838 3.04359 15.6645 3.01865 15.6446C2.62484 15.3277 2.26366 14.9782 1.90549 14.6221C1.86241 14.5794 1.81933 14.5368 1.77494 14.4928C1.49098 14.2076 1.23193 13.9096 0.982635 13.5938C0.959783 13.5653 0.936931 13.5368 0.913387 13.5074C-0.0209577 12.3382 -0.0209577 12.3382 -0.0147178 11.9124C0.00653825 11.7488 0.0894367 11.6273 0.18283 11.4961C0.201864 11.468 0.220898 11.44 0.240508 11.4111C0.299298 11.3253 0.359405 11.2407 0.420135 11.1562C0.455483 11.107 0.490832 11.0578 0.527252 11.007C1.26821 10.0021 2.13894 9.00551 3.13888 8.25C3.19554 8.20608 3.25218 8.16213 3.30881 8.11816C5.66732 6.30244 8.58764 5.20312 11.5764 5.20312C11.5764 4.13578 11.5764 3.06844 11.5764 1.96875ZM7.82638 7.73438C7.79122 7.76652 7.75605 7.79867 7.71982 7.83179C6.75892 8.74211 6.20684 10.0458 6.04513 11.3438C6.04513 11.4211 6.04513 11.4984 6.04513 11.5781C6.83404 11.5781 7.62295 11.5781 8.43576 11.5781C8.43576 11.8566 8.43576 12.135 8.43576 12.4219C7.64685 12.4219 6.85795 12.4219 6.04513 12.4219C6.08301 12.9049 6.08301 12.9049 6.17111 13.374C6.18332 13.4244 6.18332 13.4244 6.19578 13.4758C6.45861 14.5091 7.00512 15.4017 7.73263 16.1719C7.76478 16.207 7.79693 16.2422 7.83005 16.2784C8.74037 17.2393 10.0441 17.7914 11.342 17.9531C11.4194 17.9531 11.4967 17.9531 11.5764 17.9531C11.5764 17.1642 11.5764 16.3753 11.5764 15.5625C11.8548 15.5625 12.1333 15.5625 12.4201 15.5625C12.4201 16.3514 12.4201 17.1403 12.4201 17.9531C12.9032 17.9153 12.9032 17.9153 13.3723 17.8271C13.4227 17.8149 13.4227 17.8149 13.4741 17.8025C14.5074 17.5396 15.4 16.9931 16.1701 16.2656C16.2053 16.2335 16.2405 16.2013 16.2767 16.1682C17.2376 15.2579 17.7897 13.9542 17.9514 12.6562C17.9514 12.5789 17.9514 12.5016 17.9514 12.4219C17.1625 12.4219 16.3736 12.4219 15.5608 12.4219C15.5608 12.1434 15.5608 11.865 15.5608 11.5781C16.3497 11.5781 17.1386 11.5781 17.9514 11.5781C17.9135 11.0951 17.9135 11.0951 17.8254 10.626C17.8173 10.5924 17.8091 10.5588 17.8007 10.5242C17.5379 9.49087 16.9914 8.59829 16.2639 7.82812C16.2317 7.79296 16.1996 7.75779 16.1665 7.72156C15.2562 6.76066 13.9524 6.20858 12.6545 6.04688C12.5772 6.04688 12.4998 6.04688 12.4201 6.04688C12.4201 6.83578 12.4201 7.62469 12.4201 8.4375C12.1417 8.4375 11.8633 8.4375 11.5764 8.4375C11.5764 7.64859 11.5764 6.85969 11.5764 6.04688C10.1678 6.04688 8.8231 6.79285 7.82638 7.73438ZM7.34449 6.8307C7.30018 6.84927 7.25588 6.86783 7.21023 6.88696C7.13579 6.91808 7.13579 6.91808 7.05985 6.94983C7.00633 6.97283 6.95281 6.99583 6.89767 7.01953C6.84268 7.04311 6.78768 7.06669 6.73101 7.09098C5.61857 7.57468 4.59547 8.18569 3.65451 8.95312C3.63014 8.97273 3.60578 8.99234 3.58067 9.01254C2.87132 9.58635 2.18854 10.2392 1.63888 10.9688C1.5988 11.0204 1.55863 11.072 1.5184 11.1235C1.43668 11.2283 1.35569 11.3337 1.27542 11.4397C1.21356 11.521 1.15099 11.6019 1.08682 11.6814C0.966289 11.8301 0.966289 11.8301 0.94107 12.0132C0.995095 12.1788 1.08516 12.3068 1.18771 12.4453C1.2085 12.4738 1.22928 12.5024 1.25069 12.5318C1.47504 12.8357 1.71815 13.1223 1.96701 13.4062C1.99946 13.444 2.03191 13.4817 2.06534 13.5205C2.56289 14.088 3.09982 14.6366 3.70138 15.0938C3.75591 15.1366 3.81041 15.1795 3.8649 15.2225C4.78791 15.941 5.80989 16.5279 6.88888 16.9775C6.93344 16.9963 6.978 17.015 7.02391 17.0343C7.0654 17.051 7.10688 17.0678 7.14963 17.085C7.20482 17.1074 7.20482 17.1074 7.26114 17.1303C7.36569 17.1679 7.36569 17.1679 7.49826 17.1094C7.45403 17.0679 7.4098 17.0264 7.36423 16.9836C6.53278 16.1879 5.9379 15.2621 5.55881 14.1738C5.54429 14.1335 5.52977 14.0931 5.51482 14.0515C5.33959 13.5162 5.29223 12.9897 5.20138 12.4219C4.13404 12.4219 3.0667 12.4219 1.96701 12.4219C1.96701 12.1434 1.96701 11.865 1.96701 11.5781C3.03435 11.5781 4.1017 11.5781 5.20138 11.5781C5.26326 11.1914 5.32513 10.8047 5.38888 10.4062C5.71881 9.18082 6.28043 8.12454 7.17013 7.21875C7.20832 7.17984 7.24651 7.14092 7.28586 7.10083C7.37164 7.01444 7.45793 6.9287 7.54513 6.84375C7.45133 6.78325 7.45133 6.78325 7.34449 6.8307ZM16.4983 6.84375C16.6488 7.02513 16.8007 7.19261 16.9729 7.35352C18.1102 8.48508 18.589 10.0324 18.7951 11.5781C19.8625 11.5781 20.9298 11.5781 22.0295 11.5781C22.0295 11.8566 22.0295 12.135 22.0295 12.4219C20.9622 12.4219 19.8948 12.4219 18.7951 12.4219C18.7333 12.8086 18.6714 13.1953 18.6076 13.5938C18.2777 14.8194 17.716 15.8751 16.8264 16.7812C16.7743 16.8345 16.7743 16.8345 16.7211 16.8887C16.6475 16.9629 16.573 17.0363 16.4983 17.1094C16.6688 17.1662 16.7053 17.1421 16.8674 17.0748C16.9131 17.0559 16.9589 17.037 17.006 17.0176C17.055 16.9966 17.104 16.9757 17.1545 16.9541C17.2051 16.9327 17.2556 16.9112 17.3077 16.8892C18.4075 16.4157 19.4106 15.7982 20.342 15.0469C20.3694 15.0249 20.3969 15.003 20.4251 14.9804C21.1319 14.4106 21.8108 13.757 22.3576 13.0312C22.3977 12.9796 22.4379 12.928 22.4781 12.8765C22.5598 12.7717 22.6408 12.6663 22.7211 12.5603C22.783 12.479 22.8455 12.3981 22.9097 12.3186C23.0302 12.1699 23.0302 12.1699 23.0554 11.9868C23.0014 11.8212 22.9114 11.6932 22.8088 11.5547C22.788 11.5262 22.7672 11.4976 22.7458 11.4682C22.5215 11.1643 22.2784 10.8777 22.0295 10.5938C21.9971 10.556 21.9646 10.5183 21.9312 10.4795C21.4336 9.91196 20.8967 9.36344 20.2951 8.90625C20.2406 8.86337 20.1861 8.82046 20.1316 8.77753C18.4567 7.47131 18.4567 7.47131 16.4983 6.84375Z" fill="#474749" stroke="#474749"/>
<path d="M13.581 9.62549C14.2325 10.1122 14.6643 10.7234 14.8138 11.5342C14.9026 12.3789 14.7331 13.1376 14.203 13.8115C13.7349 14.3611 13.0935 14.7499 12.3644 14.8265C11.576 14.8717 10.9074 14.7392 10.2669 14.2529C10.2123 14.2127 10.2123 14.2127 10.1565 14.1716C9.60983 13.7313 9.25616 13.0537 9.1758 12.3591C9.10777 11.4872 9.3335 10.7418 9.90367 10.0723C10.8463 9.06823 12.4239 8.86315 13.581 9.62549ZM10.4867 10.7051C10.104 11.1874 9.98105 11.7251 10.0326 12.3311C10.1391 12.8573 10.426 13.3412 10.8763 13.6436C11.3887 13.9407 11.8898 14.0607 12.4805 13.9411C12.9963 13.786 13.4355 13.4838 13.7077 13.0146C13.9817 12.4895 14.0706 11.9598 13.8968 11.3818C13.6817 10.8138 13.3144 10.4301 12.7696 10.1764C11.9622 9.82682 11.0756 10.0697 10.4867 10.7051Z" fill="#474749" stroke="#474749"/>
<path d="M21.1875 18.375C21.4659 18.375 21.7444 18.375 22.0312 18.375C22.0344 18.8049 22.037 19.2348 22.0385 19.6647C22.0393 19.8643 22.0403 20.0639 22.0419 20.2635C22.0434 20.4562 22.0442 20.6489 22.0446 20.8416C22.0449 20.9151 22.0454 20.9885 22.0461 21.062C22.0471 21.165 22.0473 21.268 22.0472 21.371C22.0477 21.4589 22.0477 21.4589 22.0482 21.5486C22.0296 21.7184 21.9962 21.8042 21.8906 21.9375C21.7307 22.056 21.5703 22.0426 21.3763 22.0419C21.3438 22.0419 21.3114 22.0419 21.2779 22.0419C21.1708 22.0419 21.0638 22.0411 20.9568 22.0404C20.8824 22.0402 20.8081 22.0401 20.7337 22.04C20.5383 22.0396 20.3429 22.0387 20.1475 22.0377C19.9479 22.0367 19.7484 22.0363 19.5489 22.0358C19.1576 22.0348 18.7663 22.0332 18.375 22.0312C18.375 21.7528 18.375 21.4744 18.375 21.1875C19.3031 21.1875 20.2313 21.1875 21.1875 21.1875C21.1875 20.2594 21.1875 19.3312 21.1875 18.375Z" fill="#474749" stroke="#474749"/>
<path d="M1.97236 18.375C2.2508 18.375 2.52924 18.375 2.81611 18.375C2.81611 19.3031 2.81611 20.2313 2.81611 21.1875C3.74424 21.1875 4.67236 21.1875 5.62861 21.1875C5.62861 21.4659 5.62861 21.7444 5.62861 22.0312C5.19873 22.0344 4.76885 22.037 4.33896 22.0385C4.13933 22.0393 3.93972 22.0403 3.7401 22.0419C3.5474 22.0434 3.35472 22.0442 3.16202 22.0446C3.08855 22.0449 3.01509 22.0454 2.94162 22.0461C2.83861 22.0471 2.73563 22.0473 2.63261 22.0472C2.574 22.0475 2.5154 22.0478 2.45502 22.0482C2.28523 22.0296 2.19938 21.9962 2.06611 21.8906C1.94762 21.7307 1.96103 21.5703 1.96172 21.3763C1.96171 21.3438 1.96169 21.3114 1.96168 21.2779C1.96174 21.1708 1.96247 21.0638 1.96321 20.9568C1.96338 20.8824 1.96352 20.8081 1.96361 20.7337C1.96397 20.5383 1.96489 20.3429 1.96593 20.1475C1.96689 19.9479 1.96731 19.7484 1.96779 19.5489C1.96879 19.1576 1.97044 18.7663 1.97236 18.375Z" fill="#474749" stroke="#474749"/>
<path d="M18.375 1.97004C18.8049 1.96686 19.2348 1.96428 19.6647 1.96275C19.8643 1.96202 20.0639 1.96102 20.2635 1.95943C20.4562 1.9579 20.6489 1.95706 20.8416 1.95669C20.9151 1.95643 20.9885 1.95593 21.062 1.95517C21.165 1.95414 21.268 1.95401 21.371 1.95407C21.4296 1.95376 21.4882 1.95345 21.5486 1.95312C21.7184 1.97171 21.8042 2.00509 21.9375 2.11066C22.056 2.27055 22.0426 2.43099 22.0419 2.62496C22.0419 2.65745 22.0419 2.68994 22.0419 2.72341C22.0419 2.83044 22.0411 2.93747 22.0404 3.0445C22.0402 3.11885 22.0401 3.1932 22.04 3.26755C22.0396 3.46298 22.0387 3.6584 22.0377 3.85383C22.0367 4.05335 22.0363 4.25287 22.0358 4.4524C22.0348 4.8437 22.0332 5.23499 22.0312 5.62629C21.7528 5.62629 21.4744 5.62629 21.1875 5.62629C21.1875 4.69816 21.1875 3.77004 21.1875 2.81379C20.2594 2.81379 19.3312 2.81379 18.375 2.81379C18.375 2.53535 18.375 2.25691 18.375 1.97004Z" fill="#474749" stroke="#474749"/>
<path d="M2.62496 1.96172C2.65745 1.96171 2.68994 1.96169 2.72341 1.96168C2.83044 1.96174 2.93747 1.96247 3.0445 1.96321C3.11885 1.96338 3.1932 1.96352 3.26755 1.96361C3.46298 1.96397 3.6584 1.96489 3.85383 1.96593C4.05335 1.96689 4.25287 1.96731 4.4524 1.96779C4.8437 1.96879 5.23499 1.97044 5.62629 1.97236C5.62629 2.2508 5.62629 2.52924 5.62629 2.81611C4.69816 2.81611 3.77004 2.81611 2.81379 2.81611C2.81379 3.74424 2.81379 4.67236 2.81379 5.62861C2.53535 5.62861 2.25691 5.62861 1.97004 5.62861C1.96686 5.19873 1.96428 4.76885 1.96275 4.33896C1.96202 4.13933 1.96102 3.93972 1.95943 3.7401C1.9579 3.5474 1.95706 3.35472 1.95669 3.16202C1.95643 3.08855 1.95593 3.01509 1.95517 2.94162C1.95414 2.83861 1.95401 2.73563 1.95407 2.63261C1.95376 2.574 1.95345 2.5154 1.95312 2.45502C1.97171 2.28523 2.00509 2.19938 2.11066 2.06611C2.27055 1.94762 2.43099 1.96103 2.62496 1.96172Z" fill="#474749" stroke="#474749"/>
</g>
<defs>
<clipPath id="clip0_1410_95">
<rect width="24" height="24" fill="white"/>
</clipPath>
</defs>
</svg>
