<svg width="60" height="60" viewBox="0 0 60 60" fill="none" xmlns="http://www.w3.org/2000/svg">
    <path d="M54.8906 5.69995H5.11877V54.3093H54.8906V5.69995Z" stroke="#b88c2a" stroke-width="2" stroke-miterlimit="10"
          stroke-linecap="round" stroke-linejoin="round"/>
    <path d="M16.35 5.69995C16.35 5.69995 17.025 30.6468 10.1156 37.3125C10.1156 37.3125 16.9594 41.3624 15.9281 54.3"
          stroke="#b88c2a" stroke-width="2" stroke-miterlimit="10" stroke-linecap="round" stroke-linejoin="round"/>
    <path d="M10.1156 37.3125H5.11877" stroke="#b88c2a" stroke-width="2" stroke-miterlimit="10" stroke-linecap="round"
          stroke-linejoin="round"/>
    <path d="M11.4188 5.69995C11.4188 5.69995 12.1969 11.025 9.53442 20.1562" stroke="#b88c2a" stroke-width="2"
          stroke-miterlimit="10" stroke-linecap="round" stroke-linejoin="round"/>
    <path d="M9.05627 42.9468C9.05627 42.9468 11.1563 48.0749 10.0969 54.3093" stroke="#b88c2a" stroke-width="2"
          stroke-miterlimit="10" stroke-linecap="round" stroke-linejoin="round"/>
    <path d="M43.65 5.69995C43.65 5.69995 42.975 30.6468 49.8844 37.3125C49.8844 37.3125 43.0406 41.3624 44.0719 54.3"
          stroke="#b88c2a" stroke-width="2" stroke-miterlimit="10" stroke-linecap="round" stroke-linejoin="round"/>
    <path d="M49.8844 37.3125H54.8813" stroke="#b88c2a" stroke-width="2" stroke-miterlimit="10" stroke-linecap="round"
          stroke-linejoin="round"/>
    <path d="M48.5812 5.69995C48.5812 5.69995 47.8031 11.025 50.4656 20.1562" stroke="#b88c2a" stroke-width="2"
          stroke-miterlimit="10" stroke-linecap="round" stroke-linejoin="round"/>
    <path d="M50.9438 42.9468C50.9438 42.9468 48.8438 48.0749 49.9032 54.3093" stroke="#b88c2a" stroke-width="2"
          stroke-miterlimit="10" stroke-linecap="round" stroke-linejoin="round"/>
</svg>
