<svg width="60" height="60" viewBox="0 0 60 60" fill="none" xmlns="http://www.w3.org/2000/svg">
<path d="M30.0891 49.6782C22.966 49.6791 16.1391 45.7594 12.6882 39.3835C8.27443 31.2301 10.2076 20.9588 17.2876 14.9626C24.3197 9.00568 34.726 8.77693 42.0329 14.416C42.4426 14.7319 42.5185 15.3207 42.2016 15.7313C41.8857 16.141 41.2969 16.2169 40.8863 15.9001C34.276 10.7972 24.8607 11.0035 18.4997 16.3932C12.0938 21.8194 10.3426 31.1138 14.3372 38.491C17.9832 45.226 25.7897 48.9272 33.331 47.4994C41.5876 45.931 47.8135 38.4085 47.8135 30.0001C47.8135 29.4816 48.2335 29.0626 48.751 29.0626C49.2685 29.0626 49.6885 29.4816 49.6885 30.0001C49.6885 39.2944 42.8063 47.6091 33.6807 49.3416C32.4854 49.5685 31.2826 49.6782 30.0891 49.6782Z" fill="#b88c2a"/>
<path d="M46.2374 40.3127C46.079 40.3127 45.9168 40.2723 45.7696 40.187L43.334 38.7808C42.8849 38.522 42.7321 37.9483 42.9908 37.5002C43.2496 37.0511 43.8233 36.8973 44.2715 37.157L46.7071 38.5633C47.1562 38.822 47.309 39.3958 47.0502 39.8439C46.8768 40.1448 46.5618 40.3127 46.2374 40.3127Z" fill="#b88c2a"/>
<path d="M16.1971 22.9689C16.0387 22.9689 15.8765 22.9286 15.7293 22.8433L13.2937 21.437C12.8446 21.1783 12.6918 20.6045 12.9506 20.1564C13.2093 19.7073 13.7821 19.5536 14.2312 19.8133L16.6668 21.2195C17.1159 21.4783 17.2687 22.052 17.0099 22.5002C16.8365 22.8002 16.5215 22.9689 16.1971 22.9689Z" fill="#b88c2a"/>
<path d="M20.625 47.175C20.4666 47.175 20.3044 47.1347 20.1572 47.0493C19.7081 46.7906 19.5553 46.2168 19.8141 45.7687L21.2203 43.3331C21.4791 42.884 22.0528 42.7293 22.501 42.99C22.95 43.2487 23.1028 43.8225 22.8441 44.2706L21.4378 46.7062C21.2644 47.0081 20.9494 47.175 20.625 47.175Z" fill="#b88c2a"/>
<path d="M39.3767 47.1753C39.0523 47.1753 38.7373 47.0075 38.5639 46.7066L37.1576 44.2709C36.8989 43.8219 37.0526 43.2491 37.5008 42.9903C37.9479 42.7306 38.5217 42.8853 38.7814 43.3334L40.1876 45.7691C40.4464 46.2181 40.2926 46.7909 39.8445 47.0497C39.6973 47.135 39.5351 47.1753 39.3767 47.1753Z" fill="#b88c2a"/>
<path d="M22.0329 17.1349C21.7086 17.1349 21.3936 16.9671 21.2201 16.6661L19.8139 14.2305C19.5551 13.7824 19.7089 13.2086 20.157 12.9499C20.6051 12.6911 21.1779 12.8449 21.4376 13.293L22.8439 15.7286C23.1026 16.1767 22.9489 16.7505 22.5008 17.0092C22.3536 17.0946 22.1914 17.1349 22.0329 17.1349Z" fill="#b88c2a"/>
<path d="M13.7644 40.3127C13.44 40.3127 13.125 40.1449 12.9516 39.844C12.6928 39.3949 12.8466 38.8221 13.2947 38.5633L15.7303 37.1571C16.1775 36.8983 16.7513 37.0512 17.0109 37.5002C17.2697 37.9493 17.1159 38.5221 16.6678 38.7809L14.2322 40.1871C14.0841 40.2724 13.9228 40.3127 13.7644 40.3127Z" fill="#b88c2a"/>
<path d="M30.001 49.6875C29.4835 49.6875 29.0635 49.2684 29.0635 48.75V45.9375C29.0635 45.4191 29.4835 45 30.001 45C30.5185 45 30.9385 45.4191 30.9385 45.9375V48.75C30.9385 49.2684 30.5185 49.6875 30.001 49.6875Z" fill="#b88c2a"/>
<path d="M30.001 15C29.4835 15 29.0635 14.58 29.0635 14.0625V11.25C29.0635 10.7325 29.4835 10.3125 30.001 10.3125C30.5185 10.3125 30.9385 10.7325 30.9385 11.25V14.0625C30.9385 14.58 30.5185 15 30.001 15Z" fill="#b88c2a"/>
<path d="M14.0635 30.9375H11.251C10.7335 30.9375 10.3135 30.5184 10.3135 30C10.3135 29.4816 10.7335 29.0625 11.251 29.0625H14.0635C14.581 29.0625 15.001 29.4816 15.001 30C15.001 30.5184 14.581 30.9375 14.0635 30.9375Z" fill="#b88c2a"/>
<path d="M36.6805 36.6459C36.163 36.6459 35.743 36.2268 35.743 35.7084V34.0621H31.1736C30.6561 34.0621 30.2361 33.6431 30.2361 33.1246V32.0053C30.2361 31.8178 30.2923 31.6349 30.3973 31.4793L35.6173 23.7656C35.7917 23.5087 36.0823 23.354 36.3936 23.354H36.6805C37.198 23.354 37.618 23.774 37.618 24.2915V32.1871H38.7383C39.2558 32.1871 39.6758 32.6062 39.6758 33.1246C39.6758 33.6431 39.2558 34.0621 38.7383 34.0621H37.618V35.7084C37.618 36.2268 37.198 36.6459 36.6805 36.6459ZM32.1833 32.1871H35.743V26.9249L32.1833 32.1871Z" fill="#b88c2a"/>
<path d="M27.9055 36.6462H21.2633C20.9511 36.6462 20.6586 36.4905 20.4842 36.2308C20.3098 35.9712 20.277 35.6412 20.3961 35.3515C21.0945 33.6537 22.3967 32.4949 23.6567 31.3746C24.5258 30.6002 25.3461 29.8699 25.9301 29.0027C26.4805 28.1852 26.6417 27.1962 26.3511 26.4199C25.9151 25.2518 24.7498 25.2227 24.4086 25.2368C23.5939 25.279 22.6573 25.7571 22.4033 26.7321C22.272 27.2327 21.7592 27.5327 21.2595 27.4033C20.758 27.2712 20.4589 26.7593 20.5892 26.2587C21.0176 24.6199 22.513 23.4574 24.312 23.3637C26.053 23.2793 27.5295 24.2168 28.107 25.7627C28.6142 27.1165 28.3808 28.7196 27.4855 30.0499C26.7692 31.113 25.8205 31.9577 24.9036 32.7743C24.1676 33.4296 23.458 34.0615 22.902 34.7712H27.9055C28.423 34.7712 28.843 35.1902 28.843 35.7087C28.843 36.2271 28.423 36.6462 27.9055 36.6462Z" fill="#b88c2a"/>
<path d="M45.5841 12.1934C45.3357 12.1934 45.0872 12.0949 44.9025 11.8999C44.5472 11.524 44.5632 10.9306 44.9391 10.5743L47.6794 7.98117C48.0553 7.6268 48.6497 7.64274 49.005 8.01774C49.3603 8.39367 49.3444 8.98711 48.9685 9.34336L46.2282 11.9365C46.0472 12.109 45.8157 12.1934 45.5841 12.1934Z" fill="#b88c2a"/>
<path d="M38.6935 18.7129C38.445 18.7129 38.1966 18.6144 38.0119 18.4194C37.6566 18.0435 37.6725 17.45 38.0485 17.0938L40.8141 14.4763C41.19 14.1219 41.7835 14.1379 42.1397 14.5129C42.495 14.8888 42.4791 15.4822 42.1032 15.8385L39.3375 18.456C39.1566 18.6275 38.925 18.7129 38.6935 18.7129Z" fill="#b88c2a"/>
<path d="M30.0271 55.3042C24.3806 55.3042 18.7912 53.4264 14.2537 49.818C7.17837 44.193 3.6215 35.1405 4.9715 26.1977C6.32525 17.2324 12.6937 9.40798 21.1977 6.26267C29.669 3.12954 39.2437 4.76642 46.1821 10.5349C46.5806 10.8658 46.6349 11.4564 46.304 11.8549C45.9721 12.2524 45.3806 12.3077 44.984 11.9767C38.5593 6.63579 29.6943 5.11892 21.8484 8.02142C13.9752 10.9333 8.07837 18.1774 6.82587 26.478C5.57618 34.7599 8.86868 43.1411 15.4209 48.3527C21.9487 53.5427 30.8334 54.8674 38.6081 51.8055C44.3052 49.562 48.989 45.0517 51.4593 39.4295C54.1349 33.3386 54.0928 26.3702 51.3421 20.3111C51.1284 19.8395 51.3365 19.2836 51.8081 19.0699C52.2815 18.857 52.8356 19.0652 53.0493 19.5358C56.0193 26.0786 56.0662 33.6058 53.1759 40.1833C50.5078 46.2555 45.4481 51.1267 39.2943 53.5502C36.3018 54.7277 33.1556 55.3042 30.0271 55.3042Z" fill="#b88c2a"/>
<path d="M38.6925 18.7128C38.1816 18.7128 37.7634 18.3032 37.755 17.7903C37.7466 17.2729 38.16 16.8463 38.6775 16.8378L46.7906 16.7085L47.3888 8.59441C47.4263 8.07785 47.8716 7.67941 48.3919 7.72816C48.9084 7.7666 49.2966 8.21566 49.2581 8.73129L48.5972 17.7003C48.5616 18.185 48.1631 18.561 47.6775 18.5694L38.7075 18.7128C38.7038 18.7128 38.6981 18.7128 38.6925 18.7128Z" fill="#b88c2a"/>
</svg>
