<svg width="60" height="60" viewBox="0 0 60 60" fill="none" xmlns="http://www.w3.org/2000/svg">
<path d="M54.375 42.1875H50.625C50.1075 42.1875 49.6875 41.7684 49.6875 41.25C49.6875 40.7316 50.1075 40.3125 50.625 40.3125H54.375C54.8925 40.3125 55.3125 40.7316 55.3125 41.25C55.3125 41.7684 54.8925 42.1875 54.375 42.1875Z" fill="#b88c2a"/>
<path d="M54.375 42.1875C53.8575 42.1875 53.4375 41.7684 53.4375 41.25V30C53.4375 29.4816 53.8575 29.0625 54.375 29.0625C54.8925 29.0625 55.3125 29.4816 55.3125 30V41.25C55.3125 41.7684 54.8925 42.1875 54.375 42.1875Z" fill="#b88c2a"/>
<path d="M10.3125 38.4375C9.795 38.4375 9.375 38.0184 9.375 37.5V30C9.375 29.4816 9.795 29.0625 10.3125 29.0625C10.83 29.0625 11.25 29.4816 11.25 30V37.5C11.25 38.0184 10.83 38.4375 10.3125 38.4375Z" fill="#b88c2a"/>
<path d="M37.5 38.4375C36.9825 38.4375 36.5625 38.0184 36.5625 37.5V16.875C36.5625 16.3566 36.9825 15.9375 37.5 15.9375C38.0175 15.9375 38.4375 16.3566 38.4375 16.875V37.5C38.4375 38.0184 38.0175 38.4375 37.5 38.4375Z" fill="#b88c2a"/>
<path d="M54.375 38.4375H10.3125C9.795 38.4375 9.375 38.0184 9.375 37.5C9.375 36.9816 9.795 36.5625 10.3125 36.5625H54.375C54.8925 36.5625 55.3125 36.9816 55.3125 37.5C55.3125 38.0184 54.8925 38.4375 54.375 38.4375Z" fill="#b88c2a"/>
<path d="M10.3125 42.1875C9.795 42.1875 9.375 41.7684 9.375 41.25V37.5C9.375 36.9816 9.795 36.5625 10.3125 36.5625C10.83 36.5625 11.25 36.9816 11.25 37.5V41.25C11.25 41.7684 10.83 42.1875 10.3125 42.1875Z" fill="#b88c2a"/>
<path d="M18.75 42.1875H10.3125C9.795 42.1875 9.375 41.7684 9.375 41.25C9.375 40.7316 9.795 40.3125 10.3125 40.3125H18.75C19.2675 40.3125 19.6875 40.7316 19.6875 41.25C19.6875 41.7684 19.2675 42.1875 18.75 42.1875Z" fill="#b88c2a"/>
<path d="M39.375 42.1875H30C29.4825 42.1875 29.0625 41.7684 29.0625 41.25C29.0625 40.7316 29.4825 40.3125 30 40.3125H39.375C39.8925 40.3125 40.3125 40.7316 40.3125 41.25C40.3125 41.7684 39.8925 42.1875 39.375 42.1875Z" fill="#b88c2a"/>
<path d="M22.5 45.9375C19.9594 45.9375 17.8125 43.7906 17.8125 41.25C17.8125 38.7094 19.9594 36.5625 22.5 36.5625C25.0406 36.5625 27.1875 38.7094 27.1875 41.25C27.1875 43.7906 25.0406 45.9375 22.5 45.9375ZM22.5 38.4375C20.9756 38.4375 19.6875 39.7256 19.6875 41.25C19.6875 42.7744 20.9756 44.0625 22.5 44.0625C24.0244 44.0625 25.3125 42.7744 25.3125 41.25C25.3125 39.7256 24.0244 38.4375 22.5 38.4375Z" fill="#b88c2a"/>
<path d="M43.125 45.9375C40.5844 45.9375 38.4375 43.7906 38.4375 41.25C38.4375 38.7094 40.5844 36.5625 43.125 36.5625C45.6656 36.5625 47.8125 38.7094 47.8125 41.25C47.8125 43.7906 45.6656 45.9375 43.125 45.9375ZM43.125 38.4375C41.6006 38.4375 40.3125 39.7256 40.3125 41.25C40.3125 42.7744 41.6006 44.0625 43.125 44.0625C44.6494 44.0625 45.9375 42.7744 45.9375 41.25C45.9375 39.7256 44.6494 38.4375 43.125 38.4375Z" fill="#b88c2a"/>
<path d="M16.875 19.6875H5.625C5.1075 19.6875 4.6875 19.2684 4.6875 18.75C4.6875 18.2316 5.1075 17.8125 5.625 17.8125H16.875C17.3925 17.8125 17.8125 18.2316 17.8125 18.75C17.8125 19.2684 17.3925 19.6875 16.875 19.6875Z" fill="#b88c2a"/>
<path d="M20.625 23.4375H7.5C6.9825 23.4375 6.5625 23.0184 6.5625 22.5C6.5625 21.9816 6.9825 21.5625 7.5 21.5625H20.625C21.1425 21.5625 21.5625 21.9816 21.5625 22.5C21.5625 23.0184 21.1425 23.4375 20.625 23.4375Z" fill="#b88c2a"/>
<path d="M22.5 27.1875H9.375C8.8575 27.1875 8.4375 26.7684 8.4375 26.25C8.4375 25.7316 8.8575 25.3125 9.375 25.3125H22.5C23.0175 25.3125 23.4375 25.7316 23.4375 26.25C23.4375 26.7684 23.0175 27.1875 22.5 27.1875Z" fill="#b88c2a"/>
<path d="M35.625 15.9375H9.375C8.8575 15.9375 8.4375 15.5184 8.4375 15C8.4375 14.4816 8.8575 14.0625 9.375 14.0625H35.625C36.1425 14.0625 36.5625 14.4816 36.5625 15C36.5625 15.5184 36.1425 15.9375 35.625 15.9375Z" fill="#b88c2a"/>
<path d="M37.5 17.8125C36.9825 17.8125 36.5625 17.3934 36.5625 16.875C36.5625 16.3575 36.1416 15.9375 35.625 15.9375C35.1075 15.9375 34.6875 15.5184 34.6875 15C34.6875 14.4816 35.1075 14.0625 35.625 14.0625C37.1756 14.0625 38.4375 15.3244 38.4375 16.875C38.4375 17.3934 38.0175 17.8125 37.5 17.8125Z" fill="#b88c2a"/>
<path d="M50.625 27.1875H41.25C40.7325 27.1875 40.3125 26.7684 40.3125 26.25C40.3125 25.7316 40.7325 25.3125 41.25 25.3125H50.625C51.1425 25.3125 51.5625 25.7316 51.5625 26.25C51.5625 26.7684 51.1425 27.1875 50.625 27.1875Z" fill="#b88c2a"/>
<path d="M46.875 27.1875C46.3575 27.1875 45.9375 26.7684 45.9375 26.25V22.5C45.9375 21.9816 46.3575 21.5625 46.875 21.5625C47.3925 21.5625 47.8125 21.9816 47.8125 22.5V26.25C47.8125 26.7684 47.3925 27.1875 46.875 27.1875Z" fill="#b88c2a"/>
<path d="M46.875 23.4375C46.3575 23.4375 45.9375 23.0184 45.9375 22.5C45.9375 20.9494 44.6756 19.6875 43.125 19.6875C42.6075 19.6875 42.1875 19.2684 42.1875 18.75C42.1875 18.2316 42.6075 17.8125 43.125 17.8125C45.7097 17.8125 47.8125 19.9153 47.8125 22.5C47.8125 23.0184 47.3925 23.4375 46.875 23.4375Z" fill="#b88c2a"/>
<path d="M43.125 19.6875H37.5C36.9825 19.6875 36.5625 19.2684 36.5625 18.75C36.5625 18.2316 36.9825 17.8125 37.5 17.8125H43.125C43.6425 17.8125 44.0625 18.2316 44.0625 18.75C44.0625 19.2684 43.6425 19.6875 43.125 19.6875Z" fill="#b88c2a"/>
<path d="M54.375 30.9375C53.8575 30.9375 53.4375 30.5184 53.4375 30C53.4375 28.4494 52.1756 27.1875 50.625 27.1875C50.1075 27.1875 49.6875 26.7684 49.6875 26.25C49.6875 25.7316 50.1075 25.3125 50.625 25.3125C53.2097 25.3125 55.3125 27.4153 55.3125 30C55.3125 30.5184 54.8925 30.9375 54.375 30.9375Z" fill="#b88c2a"/>
</svg>
