<svg width="60" height="60" viewBox="0 0 60 60" fill="none" xmlns="http://www.w3.org/2000/svg">
<path d="M45.8073 18.2032C45.6479 18.2032 45.4867 18.1629 45.3395 18.0776L43.4054 16.9619C42.9564 16.7032 42.8026 16.1294 43.0623 15.6813C43.3211 15.2322 43.8957 15.0785 44.3429 15.3382L46.277 16.4538C46.7261 16.7126 46.8798 17.2863 46.6201 17.7344C46.4467 18.0344 46.1317 18.2032 45.8073 18.2032Z" fill="#b88c2a"/>
<path d="M30 55.3369C29.4825 55.3369 29.0625 54.9169 29.0625 54.3994V5.64941C29.0625 5.13191 29.4825 4.71191 30 4.71191C30.5175 4.71191 30.9375 5.13191 30.9375 5.64941V54.3994C30.9375 54.9169 30.5175 55.3369 30 55.3369Z" fill="#b88c2a"/>
<path d="M29.9456 55.3302C28.4315 55.3302 26.909 55.1933 25.3949 54.9148C16.6781 53.3061 9.34307 47.1345 6.25495 38.8077C3.15088 30.4405 4.85057 20.6145 10.5853 13.7755C16.2984 6.96266 25.2937 3.61672 34.0584 5.03891C34.5693 5.12235 34.9162 5.60422 34.8337 6.11422C34.7503 6.62516 34.2684 6.97578 33.7584 6.88953C25.6387 5.56953 17.3128 8.67078 12.0224 14.9802C6.71432 21.312 5.14026 30.4086 8.0137 38.1561C10.874 45.8661 17.6643 51.5811 25.7362 53.0708C33.8371 54.567 42.2399 51.6392 47.6662 45.432C52.0603 40.4042 54.1349 33.4442 53.2171 26.8142C53.1459 26.3014 53.504 25.828 54.0178 25.7567C54.5296 25.6855 55.0031 26.0445 55.0743 26.5573C56.0671 33.718 53.8246 41.2358 49.0781 46.6667C44.2331 52.2092 37.1878 55.3302 29.9456 55.3302Z" fill="#b88c2a"/>
<path d="M54.3749 30.9619H51.5015C50.983 30.9619 50.564 30.5419 50.564 30.0244C50.564 29.5069 50.983 29.0869 51.5015 29.0869H54.3749C54.8933 29.0869 55.3124 29.5069 55.3124 30.0244C55.3124 30.5419 54.8933 30.9619 54.3749 30.9619Z" fill="#b88c2a"/>
<path d="M36.2484 30.9619H5.625C5.1075 30.9619 4.6875 30.5419 4.6875 30.0244C4.6875 29.5069 5.1075 29.0869 5.625 29.0869H36.2484C36.7669 29.0869 37.1859 29.5069 37.1859 30.0244C37.1859 30.5419 36.7669 30.9619 36.2484 30.9619Z" fill="#b88c2a"/>
<path d="M30.0028 55.2805C28.335 55.2805 26.6681 54.6506 25.1887 53.3924C22.0856 50.7534 20.535 46.723 19.53 43.5074C17.2106 35.1056 17.0916 26.2237 19.1775 17.7937C20.0006 14.7974 22.3931 7.6368 26.9372 5.36242C28.6678 4.49617 30.5072 4.43524 32.4028 5.17961C32.8462 5.35399 33.2841 5.57805 33.7425 5.86492C34.1812 6.14055 34.3134 6.71899 34.0378 7.15774C33.7631 7.59555 33.1837 7.7268 32.7459 7.45305C32.3869 7.22805 32.0512 7.05461 31.7175 6.9243C30.3169 6.37399 29.0269 6.41149 27.7753 7.03867C23.7975 9.02992 21.5766 16.1362 20.9906 18.2671C18.9891 26.3624 19.1034 34.9162 21.3281 42.9777C22.2478 45.9224 23.6662 49.6359 26.4028 51.9637C28.5984 53.8312 31.2328 53.878 33.4462 52.0865C36.2766 49.7962 37.7278 46.0002 38.6766 42.9487C39.2803 40.9162 39.7256 38.8049 39.9975 36.6862C40.0641 36.1734 40.5216 35.8059 41.0475 35.8762C41.5603 35.9418 41.9241 36.4115 41.8575 36.9252C41.5716 39.1434 41.1056 41.3531 40.4709 43.4934C39.4397 46.8084 37.8469 50.9352 34.6256 53.5434C33.1959 54.7021 31.5994 55.2805 30.0028 55.2805Z" fill="#b88c2a"/>
<path d="M29.6418 21.434C21.7725 21.434 14.9006 19.7587 9.73122 16.5749C9.29059 16.3031 9.15278 15.7256 9.42465 15.2849C9.69653 14.8443 10.2731 14.7065 10.7147 14.9784C15.7275 18.0656 22.5206 19.6415 30.2887 19.5543C30.8465 19.5684 31.2309 19.9631 31.2384 20.4806C31.244 20.9981 30.8297 21.4227 30.3112 21.4293C30.0872 21.4331 29.8631 21.434 29.6418 21.434Z" fill="#b88c2a"/>
<path d="M38.1928 20.3678C37.8685 20.3678 37.5535 20.2 37.38 19.8991C37.1213 19.451 37.275 18.8772 37.7232 18.6185L43.4063 15.3372C43.8535 15.0775 44.4272 15.2313 44.6869 15.6803C44.9457 16.1285 44.7919 16.7022 44.3438 16.961L38.6607 20.2422C38.5135 20.3275 38.3522 20.3678 38.1928 20.3678Z" fill="#b88c2a"/>
<path d="M43.875 17.0869C43.3566 17.0869 42.9375 16.6669 42.9375 16.1494V9.58691C42.9375 9.06941 43.3566 8.64941 43.875 8.64941C44.3934 8.64941 44.8125 9.06941 44.8125 9.58691V16.1494C44.8125 16.6669 44.3934 17.0869 43.875 17.0869Z" fill="#b88c2a"/>
<path d="M43.875 23.6492C43.7128 23.6492 43.5506 23.6079 43.4063 23.5235L37.7231 20.2423C37.4325 20.0745 37.2544 19.7651 37.2544 19.4304V12.8679C37.2544 12.5332 37.4325 12.2229 37.7231 12.056L43.4063 8.77479C43.696 8.60697 44.0541 8.60697 44.3438 8.77479L50.0278 12.056C50.3185 12.2238 50.4966 12.5332 50.4966 12.8679V19.4304C50.4966 19.7651 50.3185 20.0754 50.0278 20.2423L44.3438 23.5235C44.1994 23.6079 44.0372 23.6492 43.875 23.6492ZM39.1294 18.8895L43.875 21.6288L48.6216 18.8895V13.4088L43.875 10.6695L39.1294 13.4088V18.8895Z" fill="#b88c2a"/>
<path d="M43.8742 35.2491C43.7335 35.2491 43.5901 35.2172 43.456 35.1497C42.9929 34.9181 42.8054 34.3547 43.037 33.8916C44.2107 31.5478 45.9807 29.431 47.6917 27.3853C50.5932 23.9166 53.3335 20.64 53.4357 16.3491C53.4488 15.8391 53.8651 15.4341 54.3732 15.4341H54.3957C54.9132 15.4463 55.322 15.8756 55.3107 16.3931C55.1917 21.3394 52.1101 25.0238 49.1298 28.5872C47.4123 30.6413 45.7895 32.5819 44.7142 34.7306C44.5492 35.0588 44.2182 35.2491 43.8742 35.2491Z" fill="#b88c2a"/>
<path d="M43.876 35.2492C43.5329 35.2492 43.201 35.0598 43.037 34.7317C41.9617 32.5876 40.3407 30.6498 38.6251 28.5976C35.642 25.0295 32.5576 21.3404 32.4395 16.3933C32.4273 15.8758 32.837 15.4464 33.3554 15.4342C33.8748 15.3901 34.3013 15.8308 34.3145 16.3492C34.4167 20.6411 37.1598 23.9223 40.0632 27.3948C41.7723 29.4395 43.5395 31.5526 44.7123 33.8917C44.9448 34.3548 44.7582 34.9173 44.2951 35.1498C44.1601 35.2164 44.0167 35.2492 43.876 35.2492Z" fill="#b88c2a"/>
<path d="M54.3721 17.3082C54.3655 17.3082 54.359 17.3082 54.3524 17.3082C53.8349 17.297 53.4243 16.8685 53.4346 16.351C53.4899 13.7916 52.5065 11.3513 50.6671 9.47914C48.8343 7.61258 46.4212 6.58695 43.8693 6.58695C43.858 6.58695 43.8487 6.58695 43.8374 6.58695C41.2977 6.59539 38.8977 7.62383 37.079 9.48289C35.249 11.3541 34.2674 13.7935 34.3152 16.3538C34.3246 16.8713 33.9121 17.2988 33.3955 17.3091C33.389 17.3091 33.3834 17.3091 33.3777 17.3091C32.8677 17.3091 32.4505 16.9004 32.4402 16.3895C32.383 13.3229 33.5549 10.4054 35.7393 8.1732C37.9115 5.95227 40.7859 4.7232 43.8309 4.71289H43.8712C46.9302 4.71289 49.8168 5.9382 52.0059 8.16664C54.2024 10.4026 55.3762 13.3229 55.3105 16.3923C55.2984 16.9013 54.8812 17.3082 54.3721 17.3082Z" fill="#b88c2a"/>
<path d="M10.2233 45.209C9.9074 45.209 9.59803 45.0487 9.42178 44.759C9.15271 44.3165 9.29334 43.7399 9.73584 43.4708C15.0374 40.2458 21.8558 38.6108 29.9999 38.6108C38.144 38.6108 44.9615 40.2458 50.2649 43.4708C50.7074 43.7399 50.848 44.3165 50.579 44.759C50.3108 45.2015 49.7343 45.343 49.2908 45.073C44.2855 42.029 37.7943 40.4858 29.9999 40.4858C22.2046 40.4858 15.7143 42.029 10.709 45.073C10.5571 45.1649 10.3893 45.209 10.2233 45.209Z" fill="#b88c2a"/>
</svg>
