<svg width="60" height="60" viewBox="0 0 60 60" fill="none" xmlns="http://www.w3.org/2000/svg">
<path d="M30 17.7956C29.4816 17.7956 29.0625 17.3756 29.0625 16.8581V5.625C29.0625 5.1075 29.4816 4.6875 30 4.6875C30.5184 4.6875 30.9375 5.1075 30.9375 5.625V16.8581C30.9375 17.3766 30.5184 17.7956 30 17.7956Z" fill="#b88c2a"/>
<path d="M26.25 21.5456C25.7316 21.5456 25.3125 21.1256 25.3125 20.6081V9.375C25.3125 8.8575 25.7316 8.4375 26.25 8.4375C26.7684 8.4375 27.1875 8.8575 27.1875 9.375V20.6081C27.1875 21.1266 26.7684 21.5456 26.25 21.5456Z" fill="#b88c2a"/>
<path d="M33.75 21.5456C33.2316 21.5456 32.8125 21.1256 32.8125 20.6081V9.375C32.8125 8.8575 33.2316 8.4375 33.75 8.4375C34.2684 8.4375 34.6875 8.8575 34.6875 9.375V20.6081C34.6875 21.1266 34.2684 21.5456 33.75 21.5456Z" fill="#b88c2a"/>
<path d="M10.501 21.5371C10.1766 21.5371 9.86158 21.3693 9.68814 21.0684C9.42939 20.6193 9.58314 20.0465 10.0313 19.7877L22.0313 12.8596C22.4775 12.6018 23.0522 12.7546 23.3119 13.2027C23.5706 13.6518 23.4169 14.2246 22.9688 14.4834L10.9688 21.4115C10.8216 21.4968 10.6603 21.5371 10.501 21.5371Z" fill="#b88c2a"/>
<path d="M49.4991 21.537C49.3397 21.537 49.1785 21.4967 49.0313 21.4114L37.0313 14.4833C36.5822 14.2245 36.4285 13.6508 36.6882 13.2027C36.9478 12.7545 37.5216 12.6008 37.9688 12.8595L49.9688 19.7877C50.4178 20.0464 50.5716 20.6202 50.3119 21.0683C50.1375 21.3692 49.8235 21.537 49.4991 21.537Z" fill="#b88c2a"/>
<path d="M36.8072 21.5454H33.75C33.2316 21.5454 32.8125 21.1254 32.8125 20.6079C32.8125 20.0904 33.2316 19.6704 33.75 19.6704H36.8072C37.3256 19.6704 37.7447 20.0904 37.7447 20.6079C37.7447 21.1254 37.3247 21.5454 36.8072 21.5454Z" fill="#b88c2a"/>
<path d="M26.2501 21.5454H23.1929C22.6744 21.5454 22.2554 21.1254 22.2554 20.6079C22.2554 20.0904 22.6744 19.6704 23.1929 19.6704H26.2501C26.7685 19.6704 27.1876 20.0904 27.1876 20.6079C27.1876 21.1254 26.7685 21.5454 26.2501 21.5454Z" fill="#b88c2a"/>
<path d="M29.9991 27.1705C29.7891 27.1705 29.5782 27.1002 29.4029 26.9558L22.5957 21.3308C22.1963 21.0008 22.1401 20.4102 22.4701 20.0108C22.8001 19.6123 23.3898 19.5561 23.7891 19.8852L30.5963 25.5102C30.9957 25.8402 31.0519 26.4308 30.7219 26.8302C30.5373 27.0552 30.2691 27.1705 29.9991 27.1705Z" fill="#b88c2a"/>
<path d="M30.001 27.1707C29.731 27.1707 29.4629 27.0544 29.2782 26.8304C28.9473 26.431 29.0045 25.8404 29.4038 25.5104L36.211 19.8854C36.6123 19.5554 37.2029 19.6116 37.5301 20.011C37.861 20.4104 37.8038 21.001 37.4044 21.331L30.5973 26.956C30.422 27.1004 30.211 27.1707 30.001 27.1707Z" fill="#b88c2a"/>
<path d="M30 55.3124C29.8378 55.3124 29.6756 55.2712 29.5312 55.1868L10.0313 43.9284C9.74063 43.7606 9.5625 43.4512 9.5625 43.1165V29.2603C9.5625 28.7428 9.98156 28.3228 10.5 28.3228C11.0184 28.3228 11.4375 28.7428 11.4375 29.2603V42.5756L30 53.2921L48.5625 42.5756V29.2603C48.5625 28.7428 48.9816 28.3228 49.5 28.3228C50.0184 28.3228 50.4375 28.7428 50.4375 29.2603V43.1165C50.4375 43.4512 50.2594 43.7615 49.9688 43.9284L30.4688 55.1868C30.3244 55.2712 30.1622 55.3124 30 55.3124Z" fill="#b88c2a"/>
<path d="M54.376 27.3835C54.1069 27.3835 53.8407 27.2682 53.6551 27.047L48.7801 21.2007C48.4482 20.8032 48.5016 20.2117 48.8991 19.8798C49.2985 19.5479 49.8891 19.6032 50.2191 19.9989L55.0941 25.8451C55.426 26.2426 55.3726 26.8342 54.9751 27.166C54.7997 27.3123 54.5879 27.3835 54.376 27.3835Z" fill="#b88c2a"/>
<path d="M34.876 38.6418C34.5516 38.6418 34.2366 38.4739 34.0631 38.173C33.8044 37.7239 33.9581 37.1511 34.4063 36.8924L53.9063 25.6339C54.3535 25.3752 54.9272 25.5289 55.1869 25.9771C55.4456 26.4261 55.2919 26.9989 54.8438 27.2577L35.3438 38.5161C35.1966 38.6014 35.0353 38.6418 34.876 38.6418Z" fill="#b88c2a"/>
<path d="M34.876 38.6419C34.6069 38.6419 34.3407 38.5266 34.1551 38.3053L29.2801 32.46C28.9482 32.0625 29.0016 31.4709 29.3991 31.1391C29.7985 30.8072 30.3891 30.8625 30.7191 31.2581L35.5941 37.1034C35.926 37.5009 35.8726 38.0925 35.4751 38.4244C35.2997 38.5706 35.0879 38.6419 34.876 38.6419Z" fill="#b88c2a"/>
<path d="M5.62412 27.3834C5.41224 27.3834 5.20037 27.3121 5.02412 27.1659C4.62662 26.834 4.57318 26.2434 4.90506 25.8449L9.78006 19.9987C10.111 19.6021 10.7007 19.5477 11.1001 19.8796C11.4976 20.2115 11.551 20.8021 11.2191 21.2005L6.34412 27.0468C6.15943 27.268 5.89318 27.3834 5.62412 27.3834Z" fill="#b88c2a"/>
<path d="M25.1241 38.642C24.9647 38.642 24.8035 38.6016 24.6563 38.5163L5.15628 27.2579C4.70722 26.9992 4.55347 26.4254 4.81316 25.9773C5.07097 25.5282 5.64659 25.3754 6.09378 25.6342L25.5938 36.8926C26.0428 37.1513 26.1966 37.7251 25.9369 38.1732C25.7625 38.4741 25.4485 38.642 25.1241 38.642Z" fill="#b88c2a"/>
<path d="M25.1241 38.6417C24.9122 38.6417 24.7004 38.5704 24.5241 38.4242C24.1266 38.0923 24.0732 37.5017 24.4051 37.1033L29.2801 31.2579C29.6101 30.8614 30.2007 30.807 30.6001 31.1389C30.9976 31.4708 31.051 32.0614 30.7191 32.4598L25.8441 38.3051C25.6594 38.5264 25.3932 38.6417 25.1241 38.6417Z" fill="#b88c2a"/>
<path d="M30 55.3123C29.4816 55.3123 29.0625 54.8923 29.0625 54.3748V31.8579C29.0625 31.3404 29.4816 30.9204 30 30.9204C30.5184 30.9204 30.9375 31.3404 30.9375 31.8579V54.3748C30.9375 54.8923 30.5184 55.3123 30 55.3123Z" fill="#b88c2a"/>
<path d="M29.9991 32.7957C29.8397 32.7957 29.6785 32.7554 29.5313 32.6701L10.0313 21.4116C9.58222 21.1529 9.42847 20.5791 9.68816 20.131C9.94691 19.6819 10.5207 19.5282 10.9688 19.7879L30.4688 31.0463C30.9178 31.3051 31.0716 31.8788 30.8119 32.3269C30.6385 32.6279 30.3235 32.7957 29.9991 32.7957Z" fill="#b88c2a"/>
<path d="M30.001 32.7958C29.6766 32.7958 29.3616 32.628 29.1881 32.327C28.9294 31.878 29.0831 31.3051 29.5313 31.0464L49.0313 19.788C49.4794 19.5292 50.0522 19.682 50.3119 20.1311C50.5706 20.5801 50.4169 21.153 49.9688 21.4117L30.4688 32.6711C30.3216 32.7555 30.1603 32.7958 30.001 32.7958Z" fill="#b88c2a"/>
</svg>
