<svg width="34" height="51" viewBox="0 0 34 51" fill="none" xmlns="http://www.w3.org/2000/svg">
<g clip-path="url(#clip0_1443_92)">
<path fill-rule="evenodd" clip-rule="evenodd" d="M29.1322 42.5982V30.7252L14.5557 28.6154V37.5602L29.1322 42.5982ZM29.9906 26.9628C29.9906 27.1874 29.9344 27.388 29.8381 27.5244C29.798 27.5805 29.7258 27.6527 29.6296 27.6527C29.421 27.6286 29.1242 27.2676 29.1242 26.7703C29.1242 26.3932 29.3007 26.0884 29.5253 26.0884C29.7098 26.1044 29.9906 26.4574 29.9906 26.9628ZM29.4932 24.9412C29.5012 24.9412 29.5814 24.9412 29.5975 24.9412C30.4559 25.0054 31.1297 25.8958 31.1297 26.9628C31.1297 27.4281 30.9933 27.8693 30.7527 28.1982C30.4719 28.5833 30.0788 28.7919 29.6376 28.7919C29.5895 28.7919 29.5333 28.7919 29.4852 28.7839C28.6428 28.6876 27.977 27.7971 27.977 26.7622C27.977 25.7434 28.6428 24.9412 29.4932 24.9412ZM13.9059 26.9869L29.9986 29.3213C30.1831 29.3454 30.3435 29.4417 30.4639 29.5781C30.5762 29.7144 30.6484 29.8829 30.6484 30.0754V43.6651C30.6484 43.7855 30.6163 43.9058 30.5602 44.0101C30.504 44.1144 30.4238 44.2107 30.3275 44.2748C30.2633 44.323 30.1911 44.3551 30.1189 44.3791C30.0467 44.4032 29.9665 44.4192 29.8863 44.4192C29.8462 44.4192 29.8061 44.4192 29.7579 44.4112C29.7178 44.4032 29.6777 44.3952 29.6376 44.3791L13.553 38.8117C13.4005 38.7555 13.2722 38.6593 13.1839 38.5309C13.0957 38.4025 13.0395 38.2501 13.0395 38.0897V27.741C13.0395 27.6287 13.0636 27.5244 13.1117 27.4281C13.1599 27.3318 13.2241 27.2436 13.3043 27.1714C13.3765 27.1152 13.4567 27.0671 13.5369 27.035C13.6252 27.0029 13.7134 26.9869 13.8017 26.9869H13.8097H13.8498H13.8578H13.8819H13.9059ZM27.3673 11.3034C26.2763 9.731 24.7601 8.79239 23.0273 8.79239C22.8588 8.79239 22.6823 8.80042 22.5138 8.81646C22.3454 8.83251 22.1689 8.86459 21.9924 8.89668C19.9467 9.31384 18.0855 10.5733 16.7378 12.2741C15.3901 13.9748 14.5557 16.1167 14.5557 18.2827V22.1815L29.1322 22.9276V17.657C29.1322 15.1139 28.4663 12.8918 27.3673 11.3034ZM15.5746 11.3274C17.1389 9.36197 19.3049 7.8939 21.6875 7.41257C21.9122 7.36443 22.1368 7.33234 22.3534 7.30828C22.578 7.28421 22.8026 7.27619 23.0192 7.27619C25.2013 7.27619 27.1106 8.3993 28.4744 10.2685C29.8221 12.1216 30.6404 14.7128 30.6404 17.657V23.7218C30.6404 23.8261 30.6163 23.9224 30.5762 24.0186C30.5361 24.1149 30.4799 24.1951 30.3997 24.2673C30.3275 24.3315 30.2473 24.3877 30.159 24.4197C30.0708 24.4518 29.9745 24.4759 29.8783 24.4759H29.8702H29.8301L13.7535 23.6576C13.553 23.6496 13.3685 23.5614 13.2401 23.425C13.1117 23.2886 13.0315 23.1041 13.0315 22.9035V18.2827C13.0476 15.7718 14.0102 13.2929 15.5746 11.3274ZM32.4855 48.4464L11.2105 39.654V18.2827C11.2105 15.3466 12.4299 12.3463 14.3873 9.86737C16.3527 7.3885 19.0643 5.44711 22.0485 4.62082C22.8508 4.40422 23.6289 4.31597 24.391 4.36411C25.1451 4.41224 25.8752 4.58873 26.5731 4.9016C28.4022 6.37769 29.9023 8.26292 30.9372 10.4289C31.932 12.5147 32.4935 14.8572 32.4935 17.3361V48.4464H32.4855ZM34.0017 17.3361V49.5775C34.0017 49.6417 33.9937 49.6979 33.9776 49.754C33.9616 49.8102 33.9455 49.8583 33.9215 49.9065C33.9054 49.9385 33.8894 49.9626 33.8733 49.9787L33.8573 49.9947C33.8413 50.0268 33.8172 50.0509 33.7931 50.0749C33.7691 50.099 33.745 50.1231 33.7209 50.1471C33.7049 50.1632 33.6888 50.1792 33.6648 50.2033C33.6407 50.2193 33.6166 50.2273 33.5926 50.2354L33.5845 50.2434C33.5685 50.2514 33.5444 50.2675 33.5284 50.2755H33.5204C33.4802 50.2915 33.4401 50.3076 33.392 50.3156C33.3439 50.3236 33.2957 50.3316 33.2556 50.3316C33.2075 50.3316 33.1594 50.3236 33.1112 50.3156C33.0631 50.3076 33.015 50.2915 32.9668 50.2755L10.1756 40.8654C10.0312 40.8092 9.91892 40.7049 9.8387 40.5846C9.75847 40.4643 9.71034 40.3199 9.71034 40.1594V18.2827C9.71034 15.0177 11.05 11.6964 13.216 8.96086C15.382 6.22527 18.3663 4.07531 21.6635 3.16879C22.0646 3.05648 22.4577 2.97626 22.8588 2.92812C23.0112 2.91208 23.1636 2.89603 23.316 2.87999C22.4577 2.4869 21.5592 2.17403 20.6286 1.94138C19.4975 1.66061 18.3182 1.51621 17.0988 1.51621C12.847 1.51621 8.99635 3.28912 6.21263 6.15307C3.42089 9.01701 1.6961 12.972 1.6961 17.3361V49.5775C1.6961 49.7861 1.60785 49.9787 1.47148 50.115C1.3351 50.2514 1.14256 50.3397 0.933987 50.3397C0.725408 50.3397 0.532876 50.2514 0.396497 50.115C0.260119 49.9787 0.171875 49.7861 0.171875 49.5775V17.3361C0.171875 12.5629 2.07315 8.23083 5.12963 5.08611C8.19413 1.94941 12.4298 0 17.0908 0C21.7597 0 25.9875 1.94139 29.052 5.08611C32.1004 8.22281 34.0017 12.5548 34.0017 17.3361Z" fill="url(#paint0_linear_1443_92)"/>
</g>
<defs>
<linearGradient id="paint0_linear_1443_92" x1="37.0018" y1="-50.5" x2="12.2429" y2="63.2832" gradientUnits="userSpaceOnUse">
<stop stop-color="white"/>
<stop offset="1" stop-color="white"/>
</linearGradient>
<clipPath id="clip0_1443_92">
<rect width="34" height="51" fill="white"/>
</clipPath>
</defs>
</svg>
