<?xml version="1.0" encoding="UTF-8"?>
<svg xmlns="http://www.w3.org/2000/svg" xmlns:xlink="http://www.w3.org/1999/xlink" width="227px" height="200px" viewBox="0 0 226 200" version="1.1">
<g id="surface1">
<path style=" stroke:none;fill-rule:nonzero;fill:rgb(16.470589%,25.490198%,30.980393%);fill-opacity:1;" d="M 144.832031 103.941406 C 145.03125 103.011719 145.621094 100.0625 144.035156 97.160156 C 142.976562 95.222656 141.4375 94.199219 140.050781 93.398438 C 140.613281 93.019531 141.148438 92.679688 141.648438 92.371094 C 141.835938 91.824219 141.980469 91.128906 141.648438 90.777344 C 141.441406 90.5625 140.785156 90.203125 138.066406 91.574219 C 137.761719 91.730469 137.457031 91.890625 137.160156 92.058594 C 135.320312 91.449219 133.238281 91.171875 130.109375 90.777344 C 125.105469 90.148438 121.527344 90.324219 120.558594 90.378906 C 117.265625 90.570312 114.8125 91.050781 114.195312 91.175781 C 114.160156 91.183594 114.128906 91.1875 114.097656 91.195312 C 113.003906 90.246094 112.070312 89.71875 111.804688 89.582031 C 110.410156 88.824219 109.023438 88.417969 107.628906 88.238281 C 105.113281 87.917969 102.566406 88.335938 99.871094 88.785156 C 97.457031 89.183594 95.378906 90.382812 92.90625 91.972656 C 92.195312 92.433594 90.46875 93.429688 87.4375 96.820312 C 87.339844 96.933594 87.242188 97.042969 87.136719 97.160156 C 86.769531 97.578125 86.425781 97.972656 86.101562 98.355469 C 84.582031 100.164062 83.621094 101.628906 83.554688 103.539062 C 83.542969 103.851562 83.507812 104.972656 83.953125 105.136719 C 84.574219 105.367188 85.6875 103.574219 87.136719 101.546875 C 87.859375 100.539062 88.644531 99.429688 89.484375 98.355469 C 90.378906 97.203125 91.332031 96.085938 92.308594 95.164062 C 95.460938 92.191406 98.960938 91.148438 100.269531 90.777344 C 102.382812 90.175781 104.8125 89.480469 107.628906 90.207031 C 107.824219 90.253906 108.023438 90.316406 108.226562 90.378906 C 108.789062 90.5625 110.019531 90.972656 111.261719 91.882812 C 109.820312 92.28125 108.589844 92.699219 107.628906 93.0625 C 106.496094 93.488281 105.730469 93.832031 105.441406 93.96875 C 103.707031 94.765625 100.914062 96.082031 98.03125 98.355469 C 96.210938 99.796875 94.351562 101.617188 92.707031 103.941406 C 89.796875 108.050781 89.261719 111.320312 89.125 112.316406 C 88.882812 114.132812 88.601562 116.46875 89.921875 118.699219 C 91.390625 121.175781 93.957031 122.039062 94.699219 122.285156 C 101.113281 124.445312 107.824219 119.15625 109.417969 117.898438 C 114.417969 113.964844 116.273438 109.0625 116.980469 107.128906 C 118.046875 104.199219 119.136719 101.214844 118.171875 97.558594 C 117.664062 95.621094 116.726562 94.058594 115.722656 92.851562 C 116.488281 92.675781 117.308594 92.511719 118.171875 92.371094 C 125.605469 91.15625 130.832031 92.441406 132.097656 92.773438 C 133.117188 93.039062 134.007812 93.277344 134.800781 93.550781 C 131.53125 95.84375 129.34375 98.324219 129.3125 98.355469 C 119.480469 109.496094 121.335938 108.3125 119.367188 111.121094 C 116.15625 115.703125 116.1875 115.980469 111.011719 124.28125 C 111.011719 124.28125 109.085938 126.328125 103.054688 133.855469 C 101.21875 136.144531 99.675781 137.976562 97.085938 138.640625 C 96.570312 138.773438 93.554688 139.542969 91.515625 137.84375 C 91.234375 137.605469 90.628906 137.105469 90.320312 136.246094 C 89.679688 134.476562 91.09375 133.441406 90.71875 131.859375 C 90.335938 130.25 88.242188 128.640625 86.339844 129.066406 C 84.613281 129.453125 83.746094 131.359375 83.554688 132.65625 C 83.125 135.585938 85.8125 137.800781 86.339844 138.242188 C 88.523438 140.042969 91.03125 140.171875 92.707031 140.234375 C 93.851562 140.277344 96.574219 140.25 101.0625 138.242188 C 105.554688 136.226562 108.707031 133.617188 110.613281 131.859375 C 111.84375 130.726562 115.421875 127.289062 121.355469 117.5 C 126.433594 109.125 126.113281 107.832031 129.3125 103.539062 C 132.03125 99.890625 135.011719 97.140625 137.671875 95.101562 C 137.957031 95.351562 138.21875 95.636719 138.464844 95.960938 C 140.972656 99.28125 139.546875 103.824219 139.261719 104.738281 C 138.9375 105.761719 137.773438 109.476562 134.484375 110.71875 C 133.707031 111.015625 132.996094 111.097656 132.496094 111.121094 C 130.242188 111.25 127.988281 111.386719 125.730469 111.519531 C 125.585938 111.777344 125.316406 112.351562 125.335938 113.113281 C 125.363281 114.1875 125.953125 114.902344 126.128906 115.109375 C 126.976562 114.664062 129.554688 113.46875 132.496094 114.308594 C 133.015625 114.457031 133.964844 114.742188 134.882812 115.507812 C 137.113281 117.359375 137.21875 120.449219 137.269531 121.886719 C 137.421875 126.234375 135.304688 129.453125 134.484375 130.664062 C 133.40625 132.253906 130.574219 136.429688 125.730469 137.042969 C 125.046875 137.132812 120.796875 137.667969 118.96875 135.050781 C 117.316406 132.6875 118.707031 129.308594 118.96875 128.667969 C 119.417969 127.574219 120.242188 125.566406 122.152344 124.28125 C 122.773438 123.863281 123.71875 123.375 124.140625 122.285156 C 124.347656 121.75 124.480469 120.929688 124.140625 120.691406 C 123.667969 120.359375 122.476562 121.304688 121.753906 121.886719 C 120.707031 122.734375 119.390625 123.792969 118.171875 125.875 C 117.105469 127.703125 115.855469 129.835938 116.183594 132.65625 C 116.472656 135.167969 117.949219 137.683594 120.160156 139.039062 C 124.164062 141.488281 129.085938 139.226562 132.097656 137.84375 C 134.273438 136.839844 140.429688 134.007812 142.445312 127.472656 C 142.890625 126.03125 144.070312 122.191406 142.046875 118.296875 C 140.253906 114.859375 137.0625 113.492188 136.078125 113.113281 C 137.28125 112.691406 139.324219 111.796875 141.25 109.921875 C 142.289062 108.914062 144.164062 107.035156 144.832031 103.941406 Z M 113.796875 104.738281 C 112.636719 108.359375 110.582031 110.398438 107.03125 113.910156 C 103.726562 117.1875 101.570312 119.257812 98.277344 119.496094 C 97.664062 119.539062 94.289062 119.78125 92.308594 117.5 C 90.152344 115.015625 91.15625 111.257812 91.515625 109.921875 C 92.585938 105.917969 95.363281 103.59375 98.277344 101.148438 C 98.445312 101.007812 98.609375 100.871094 98.777344 100.742188 C 99.269531 100.34375 99.757812 99.972656 100.242188 99.625 C 100.398438 99.511719 100.554688 99.40625 100.710938 99.296875 C 101.195312 98.960938 101.675781 98.648438 102.144531 98.355469 C 102.355469 98.226562 102.566406 98.101562 102.773438 97.980469 C 102.945312 97.882812 103.113281 97.78125 103.28125 97.691406 C 103.320312 97.664062 103.355469 97.644531 103.390625 97.625 C 103.484375 97.574219 103.578125 97.519531 103.667969 97.46875 C 103.765625 97.417969 103.855469 97.367188 103.949219 97.320312 C 104.082031 97.246094 104.222656 97.175781 104.359375 97.105469 C 104.472656 97.042969 104.59375 96.984375 104.707031 96.925781 C 105.316406 96.617188 105.898438 96.339844 106.453125 96.089844 C 106.84375 95.910156 107.222656 95.746094 107.585938 95.597656 C 107.601562 95.585938 107.613281 95.582031 107.628906 95.574219 C 107.976562 95.433594 108.308594 95.296875 108.625 95.164062 C 109.628906 94.75 111.101562 94.152344 113.003906 93.574219 C 116.074219 97.601562 114.300781 103.148438 113.796875 104.738281 Z M 113.796875 104.738281 "/>
<path style=" stroke:none;fill-rule:nonzero;fill:rgb(94.117647%,81.176472%,6.27451%);fill-opacity:1;" d="M 153.585938 91.972656 C 151.453125 90.78125 145.570312 87.128906 142.046875 79.609375 C 138.9375 72.984375 139.347656 66.949219 139.660156 64.453125 L 86.339844 64.453125 C 86.652344 66.949219 87.0625 72.984375 83.953125 79.609375 C 80.429688 87.128906 74.546875 90.78125 72.414062 91.972656 C 71.636719 98.730469 71.101562 111.160156 75.996094 125.476562 C 77.765625 130.65625 81.9375 141.023438 91.117188 151.402344 C 99.074219 160.398438 107.488281 165.664062 113 168.554688 C 118.511719 165.664062 126.925781 160.398438 134.882812 151.402344 C 144.0625 141.023438 148.234375 130.65625 150.003906 125.476562 C 154.898438 111.160156 154.363281 98.730469 153.585938 91.972656 Z M 144.832031 103.941406 C 144.164062 107.035156 142.289062 108.914062 141.25 109.921875 C 139.324219 111.796875 137.28125 112.691406 136.078125 113.113281 C 137.0625 113.492188 140.253906 114.859375 142.046875 118.296875 C 144.070312 122.191406 142.890625 126.03125 142.445312 127.472656 C 140.429688 134.007812 134.273438 136.839844 132.097656 137.84375 C 129.085938 139.226562 124.164062 141.488281 120.160156 139.039062 C 117.949219 137.683594 116.472656 135.171875 116.183594 132.65625 C 115.855469 129.835938 117.105469 127.703125 118.171875 125.875 C 119.390625 123.792969 120.707031 122.734375 121.753906 121.886719 C 122.476562 121.304688 123.667969 120.359375 124.140625 120.691406 C 124.480469 120.929688 124.347656 121.75 124.140625 122.289062 C 123.71875 123.375 122.773438 123.863281 122.152344 124.28125 C 120.242188 125.566406 119.417969 127.574219 118.96875 128.667969 C 118.707031 129.308594 117.316406 132.6875 118.96875 135.050781 C 120.796875 137.667969 125.046875 137.132812 125.730469 137.042969 C 130.574219 136.429688 133.40625 132.253906 134.484375 130.664062 C 135.304688 129.453125 137.421875 126.234375 137.269531 121.886719 C 137.21875 120.449219 137.113281 117.359375 134.882812 115.507812 C 133.964844 114.742188 133.015625 114.457031 132.496094 114.308594 C 129.554688 113.46875 126.976562 114.664062 126.128906 115.109375 C 125.953125 114.902344 125.363281 114.1875 125.335938 113.113281 C 125.316406 112.351562 125.585938 111.777344 125.730469 111.519531 C 127.988281 111.386719 130.242188 111.25 132.496094 111.121094 C 132.996094 111.097656 133.707031 111.015625 134.484375 110.71875 C 137.773438 109.476562 138.9375 105.761719 139.261719 104.738281 C 139.546875 103.824219 140.972656 99.28125 138.464844 95.960938 C 138.21875 95.636719 137.957031 95.351562 137.671875 95.101562 C 135.011719 97.140625 132.03125 99.890625 129.3125 103.539062 C 126.113281 107.832031 126.433594 109.125 121.355469 117.5 C 115.421875 127.289062 111.84375 130.726562 110.613281 131.859375 C 108.707031 133.617188 105.554688 136.226562 101.0625 138.242188 C 96.574219 140.25 93.847656 140.28125 92.707031 140.234375 C 91.03125 140.171875 88.523438 140.042969 86.339844 138.242188 C 85.8125 137.800781 83.125 135.585938 83.554688 132.65625 C 83.746094 131.359375 84.613281 129.453125 86.339844 129.066406 C 88.242188 128.640625 90.335938 130.25 90.71875 131.859375 C 91.09375 133.441406 89.679688 134.476562 90.320312 136.246094 C 90.628906 137.105469 91.234375 137.605469 91.515625 137.84375 C 93.554688 139.542969 96.570312 138.773438 97.085938 138.640625 C 99.675781 137.976562 101.21875 136.144531 103.054688 133.855469 C 109.085938 126.328125 111.011719 124.28125 111.011719 124.28125 C 116.1875 115.980469 116.15625 115.703125 119.367188 111.121094 C 121.335938 108.3125 119.480469 109.496094 129.3125 98.355469 C 129.34375 98.324219 131.53125 95.84375 134.800781 93.550781 C 134.007812 93.277344 133.117188 93.039062 132.097656 92.773438 C 130.832031 92.441406 125.605469 91.15625 118.171875 92.371094 C 117.308594 92.511719 116.488281 92.675781 115.722656 92.851562 C 116.726562 94.058594 117.664062 95.621094 118.171875 97.558594 C 119.136719 101.214844 118.046875 104.199219 116.980469 107.128906 C 116.273438 109.0625 114.417969 113.964844 109.417969 117.898438 C 107.824219 119.15625 101.113281 124.445312 94.695312 122.289062 C 93.957031 122.039062 91.390625 121.175781 89.921875 118.699219 C 88.601562 116.46875 88.882812 114.132812 89.125 112.316406 C 89.261719 111.320312 89.796875 108.050781 92.707031 103.941406 C 94.351562 101.617188 96.210938 99.796875 98.03125 98.355469 C 100.910156 96.082031 103.707031 94.765625 105.441406 93.96875 C 105.730469 93.832031 106.496094 93.488281 107.628906 93.0625 C 108.589844 92.699219 109.820312 92.28125 111.261719 91.882812 C 110.019531 90.972656 108.789062 90.5625 108.226562 90.378906 C 108.023438 90.316406 107.824219 90.253906 107.628906 90.207031 C 104.8125 89.480469 102.382812 90.175781 100.269531 90.777344 C 98.960938 91.148438 95.460938 92.191406 92.308594 95.164062 C 91.332031 96.085938 90.378906 97.203125 89.484375 98.355469 C 88.644531 99.429688 87.859375 100.539062 87.136719 101.546875 C 85.6875 103.574219 84.574219 105.367188 83.953125 105.136719 C 83.507812 104.972656 83.542969 103.851562 83.554688 103.539062 C 83.621094 101.628906 84.582031 100.164062 86.101562 98.355469 C 86.425781 97.972656 86.769531 97.578125 87.136719 97.160156 C 87.242188 97.042969 87.339844 96.933594 87.4375 96.820312 C 90.46875 93.429688 92.195312 92.433594 92.90625 91.972656 C 95.378906 90.382812 97.457031 89.183594 99.871094 88.785156 C 102.566406 88.335938 105.113281 87.917969 107.628906 88.238281 C 109.023438 88.417969 110.410156 88.824219 111.804688 89.582031 C 112.070312 89.722656 113.003906 90.246094 114.097656 91.195312 C 114.128906 91.1875 114.160156 91.183594 114.195312 91.175781 C 114.8125 91.050781 117.265625 90.570312 120.558594 90.378906 C 121.527344 90.324219 125.105469 90.148438 130.109375 90.777344 C 133.238281 91.171875 135.320312 91.449219 137.160156 92.058594 C 137.457031 91.890625 137.761719 91.730469 138.066406 91.574219 C 140.785156 90.203125 141.441406 90.5625 141.648438 90.777344 C 141.980469 91.128906 141.835938 91.824219 141.648438 92.371094 C 141.148438 92.679688 140.613281 93.019531 140.050781 93.398438 C 141.4375 94.199219 142.976562 95.222656 144.035156 97.160156 C 145.621094 100.0625 145.03125 103.011719 144.832031 103.941406 Z M 144.832031 103.941406 "/>
<path style=" stroke:none;fill-rule:nonzero;fill:rgb(94.117647%,81.176472%,6.27451%);fill-opacity:1;" d="M 147.617188 30.152344 C 146.347656 31.6875 144.613281 31.253906 144.035156 31.347656 C 142.574219 36.003906 141.117188 40.652344 139.660156 45.308594 L 85.960938 45.308594 C 84.5 40.652344 83.042969 36.003906 81.582031 31.347656 C 81.007812 31.253906 79.269531 31.6875 78.003906 30.152344 C 77.597656 29.65625 76.660156 27.730469 76.808594 26.164062 C 76.835938 25.867188 76.988281 24.65625 78.003906 23.769531 C 79.136719 22.78125 80.53125 22.914062 81.183594 22.972656 C 81.8125 23.03125 83.101562 23.148438 83.96875 24.167969 C 84.828125 25.179688 84.78125 26.488281 84.765625 26.960938 C 84.71875 28.367188 84.5 28.261719 84.367188 28.957031 C 84.15625 30.074219 86.222656 30.519531 87.949219 30.550781 C 89.929688 30.589844 90.980469 30.773438 91.929688 30.152344 C 92.496094 29.78125 93.007812 29.167969 93.917969 24.566406 C 94.925781 19.484375 94.246094 18.25 93.917969 17.789062 C 93.171875 16.75 92.324219 17.445312 91.53125 15.394531 C 91.054688 14.164062 91.148438 12.625 91.929688 11.40625 C 92.101562 11.132812 93.15625 9.546875 95.109375 9.410156 C 96.910156 9.285156 98.425781 10.460938 99.089844 11.804688 C 99.574219 12.785156 99.695312 14.277344 99.089844 15.394531 C 98.449219 16.570312 98.015625 16.972656 97.5 17.390625 C 96.695312 18.035156 97.296875 18.566406 99.089844 22.574219 C 100.167969 24.984375 100.574219 26.121094 101.875 27.359375 C 103.160156 28.589844 103.9375 28.59375 104.261719 28.554688 C 105.203125 28.449219 105.984375 27.679688 106.253906 26.960938 C 107.445312 23.769531 109.039062 16.988281 109.039062 16.988281 C 110.242188 13.710938 109.832031 14.199219 111.027344 9.410156 C 111.058594 9.289062 111.410156 8.683594 110.230469 7.816406 C 108.191406 6.3125 108.238281 5.011719 108.242188 4.226562 C 108.246094 2.675781 109.3125 0.867188 111.027344 0.238281 C 111.691406 -0.00390625 112.3125 -0.0273438 112.808594 0.0234375 C 113.304688 -0.0273438 113.925781 -0.00390625 114.589844 0.238281 C 116.304688 0.867188 117.371094 2.675781 117.378906 4.226562 C 117.382812 5.011719 117.429688 6.3125 115.386719 7.816406 C 114.210938 8.683594 114.558594 9.289062 114.589844 9.410156 C 115.785156 14.199219 115.375 13.710938 116.582031 16.988281 C 116.582031 16.988281 118.171875 23.769531 119.367188 26.960938 C 119.632812 27.679688 120.417969 28.449219 121.355469 28.554688 C 121.683594 28.59375 122.457031 28.589844 123.742188 27.359375 C 125.042969 26.121094 125.449219 24.984375 126.527344 22.574219 C 128.324219 18.566406 128.921875 18.035156 128.121094 17.390625 C 127.601562 16.972656 127.167969 16.570312 126.527344 15.394531 C 125.921875 14.277344 126.042969 12.785156 126.527344 11.804688 C 127.191406 10.460938 128.707031 9.285156 130.507812 9.410156 C 132.460938 9.546875 133.515625 11.132812 133.691406 11.40625 C 134.46875 12.625 134.566406 14.164062 134.089844 15.394531 C 133.292969 17.445312 132.445312 16.75 131.699219 17.789062 C 131.371094 18.25 130.695312 19.484375 131.699219 24.566406 C 132.613281 29.167969 133.121094 29.78125 133.691406 30.152344 C 134.636719 30.773438 135.6875 30.589844 137.667969 30.550781 C 139.394531 30.519531 141.460938 30.074219 141.25 28.957031 C 141.117188 28.261719 140.898438 28.367188 140.851562 26.960938 C 140.835938 26.488281 140.789062 25.179688 141.648438 24.167969 C 142.515625 23.148438 143.804688 23.03125 144.433594 22.972656 C 145.085938 22.914062 146.484375 22.78125 147.617188 23.769531 C 148.632812 24.65625 148.78125 25.867188 148.808594 26.164062 C 148.957031 27.730469 148.023438 29.65625 147.617188 30.152344 Z M 147.617188 30.152344 "/>
<path style=" stroke:none;fill-rule:nonzero;fill:rgb(94.117647%,81.176472%,6.27451%);fill-opacity:1;" d="M 138.464844 47.703125 C 138.066406 49.03125 137.667969 50.363281 137.269531 51.691406 L 88.332031 51.691406 C 87.933594 50.226562 87.535156 48.765625 87.136719 47.304688 C 104.246094 47.433594 121.355469 47.570312 138.464844 47.703125 Z M 138.464844 47.703125 "/>
<path style=" stroke:none;fill-rule:nonzero;fill:rgb(94.117647%,81.176472%,6.27451%);fill-opacity:1;" d="M 218.042969 161.375 C 217.890625 160.667969 217.5 158.933594 216.050781 157.386719 C 214.558594 155.785156 212.789062 155.300781 211.675781 154.992188 C 210.867188 154.769531 210.074219 154.644531 206.503906 154.59375 C 204.546875 154.566406 202.90625 154.578125 201.730469 154.59375 C 202.175781 153.96875 202.773438 153.027344 203.320312 151.800781 C 204.121094 150.003906 204.890625 148.269531 204.515625 146.21875 C 204.117188 144.0625 202.667969 142.714844 202.125 142.230469 C 201.707031 141.855469 198.933594 139.425781 195.363281 140.234375 C 194.878906 140.347656 192.203125 140.949219 190.984375 143.425781 C 190.832031 143.746094 189.597656 146.242188 190.984375 148.210938 C 191.683594 149.199219 193.066406 150.097656 194.566406 149.808594 C 194.734375 149.777344 196.496094 149.40625 196.953125 147.8125 C 197.253906 146.78125 196.878906 145.636719 196.160156 145.023438 C 195.058594 144.085938 193.507812 144.6875 193.375 144.222656 C 193.25 143.800781 194.421875 142.835938 195.761719 142.628906 C 197.597656 142.34375 199.070312 143.597656 199.339844 143.824219 C 200.96875 145.207031 201.621094 147.492188 201.332031 149.410156 C 200.996094 151.597656 199.503906 152.851562 196.953125 154.992188 C 195.691406 156.050781 193.25 158.0625 189.394531 159.378906 C 186.183594 160.476562 183.347656 160.632812 181.4375 160.578125 C 181.695312 160.171875 182.382812 158.972656 182.230469 157.386719 C 182.078125 155.742188 181.125 154.707031 180.640625 154.195312 C 180.34375 153.878906 177.8125 151.203125 175.070312 152.199219 C 173.097656 152.917969 172.398438 155.042969 172.285156 155.390625 C 172.613281 155.164062 173.835938 154.378906 175.46875 154.59375 C 175.84375 154.644531 177.558594 154.875 178.253906 156.191406 C 179.019531 157.640625 178.109375 159.574219 177.058594 160.578125 C 175.65625 161.917969 173.640625 161.9375 171.488281 161.773438 C 166.765625 161.417969 161.214844 161 154.777344 156.988281 C 152.894531 155.816406 150.28125 153.925781 147.617188 151.003906 C 151.558594 145.320312 156.183594 137.324219 159.550781 127.074219 C 165.082031 110.246094 164.554688 95.5 163.53125 86.789062 C 162.632812 86.398438 151.558594 81.410156 149.605469 71.234375 C 148.714844 66.585938 149.929688 61.9375 150.003906 61.660156 C 150.839844 58.582031 152.191406 56.296875 153.1875 54.882812 L 72.015625 54.882812 C 73.011719 56.296875 74.363281 58.582031 75.199219 61.660156 C 75.277344 61.9375 76.488281 66.585938 75.597656 71.234375 C 73.644531 81.410156 62.570312 86.398438 61.671875 86.789062 C 60.648438 95.5 60.121094 110.246094 65.652344 127.074219 C 69.019531 137.324219 73.644531 145.320312 77.589844 151.003906 C 74.921875 153.925781 72.308594 155.816406 70.425781 156.988281 C 63.988281 161 58.4375 161.417969 53.714844 161.773438 C 51.5625 161.9375 49.546875 161.917969 48.144531 160.578125 C 47.09375 159.574219 46.183594 157.640625 46.949219 156.191406 C 47.648438 154.875 49.363281 154.644531 49.734375 154.59375 C 51.367188 154.378906 52.59375 155.164062 52.917969 155.390625 C 52.808594 155.042969 52.105469 152.917969 50.132812 152.199219 C 47.390625 151.203125 44.863281 153.878906 44.5625 154.195312 C 44.078125 154.707031 43.125 155.742188 42.972656 157.386719 C 42.820312 158.972656 43.507812 160.171875 43.765625 160.578125 C 41.859375 160.632812 39.019531 160.476562 35.808594 159.378906 C 31.953125 158.0625 29.511719 156.050781 28.25 154.992188 C 25.699219 152.851562 24.207031 151.597656 23.875 149.410156 C 23.582031 147.492188 24.234375 145.207031 25.863281 143.824219 C 26.132812 143.597656 27.605469 142.34375 29.445312 142.628906 C 30.78125 142.835938 31.953125 143.800781 31.832031 144.222656 C 31.695312 144.6875 30.144531 144.085938 29.046875 145.023438 C 28.324219 145.636719 27.953125 146.78125 28.25 147.8125 C 28.707031 149.40625 30.46875 149.777344 30.636719 149.808594 C 32.136719 150.097656 33.523438 149.199219 34.21875 148.210938 C 35.605469 146.242188 34.375 143.746094 34.21875 143.425781 C 33 140.949219 30.328125 140.347656 29.839844 140.234375 C 26.273438 139.425781 23.496094 141.855469 23.078125 142.230469 C 22.535156 142.714844 21.089844 144.0625 20.691406 146.21875 C 20.3125 148.269531 21.082031 150.003906 21.882812 151.800781 C 22.429688 153.027344 23.03125 153.96875 23.476562 154.59375 C 22.296875 154.578125 20.660156 154.566406 18.699219 154.59375 C 15.132812 154.644531 14.335938 154.769531 13.527344 154.992188 C 12.414062 155.300781 10.648438 155.785156 9.152344 157.386719 C 7.703125 158.933594 7.3125 160.667969 7.160156 161.375 C 6.945312 162.390625 6.402344 164.953125 7.957031 167.359375 C 9.816406 170.238281 13.148438 170.519531 13.527344 170.546875 C 16.988281 170.789062 19.210938 168.460938 19.496094 168.15625 C 19.230469 168.265625 16.417969 169.390625 13.925781 167.757812 C 13.386719 167.402344 11.824219 166.238281 11.539062 164.167969 C 11.339844 162.742188 11.785156 161.207031 12.730469 160.179688 C 14.355469 158.410156 17.015625 158.613281 21.882812 158.980469 C 25.542969 159.261719 28.160156 159.933594 29.046875 160.179688 C 31.675781 160.894531 33.824219 161.800781 35.410156 162.570312 C 34.917969 162.984375 33.476562 164.316406 33.023438 166.558594 C 32.894531 167.203125 32.589844 168.816406 33.421875 170.546875 C 34.582031 172.964844 36.996094 173.636719 37.402344 173.738281 C 38.214844 173.949219 39.929688 174.394531 41.378906 173.339844 C 42.65625 172.414062 42.914062 170.925781 42.972656 170.546875 C 42.597656 170.800781 41.382812 171.539062 39.789062 171.347656 C 39.496094 171.308594 37.296875 171.046875 36.605469 169.351562 C 35.953125 167.746094 37.15625 166.097656 37.402344 165.761719 C 38.71875 163.960938 40.898438 163.578125 42.175781 163.367188 C 44.988281 162.914062 45.726562 163.828125 50.132812 164.167969 C 54.007812 164.464844 55.417969 163.90625 55.703125 164.566406 C 56.164062 165.617188 52.726562 167.457031 47.347656 172.144531 C 42.074219 176.742188 41.128906 178.6875 37.003906 180.519531 C 32.609375 182.46875 30.546875 181.660156 29.839844 181.316406 C 29.601562 181.203125 27.707031 180.238281 27.054688 178.125 C 26.921875 177.6875 26.332031 175.78125 27.453125 174.535156 C 28.0625 173.863281 29.207031 173.339844 29.839844 173.738281 C 30.800781 174.34375 29.667969 176.5 30.636719 177.328125 C 31.621094 178.167969 34.492188 177.421875 35.015625 175.734375 C 35.535156 174.058594 33.441406 172.375 32.230469 171.746094 C 31.742188 171.492188 30.117188 170.742188 28.25 171.347656 C 25.414062 172.261719 24.730469 175.441406 24.667969 175.734375 C 24.054688 178.804688 26.167969 181.167969 26.660156 181.714844 C 29.085938 184.433594 32.535156 184.492188 33.421875 184.507812 C 36.976562 184.570312 39.445312 182.71875 40.1875 182.113281 C 44.695312 178.125 49.207031 174.136719 53.714844 170.148438 C 53.628906 170.882812 53.519531 172.679688 54.511719 174.535156 C 55.789062 176.941406 58.015625 177.796875 58.886719 178.125 C 59.671875 178.425781 64.007812 180.085938 66.050781 177.726562 C 67.328125 176.253906 67.058594 173.941406 66.445312 172.542969 C 66.160156 171.890625 65.511719 170.417969 64.058594 170.148438 C 63.113281 169.976562 61.886719 170.328125 61.273438 171.347656 C 60.597656 172.472656 60.902344 174.019531 61.671875 174.535156 C 62.40625 175.027344 63.386719 174.472656 63.660156 174.9375 C 63.84375 175.246094 63.582031 175.804688 63.265625 176.132812 C 62.378906 177.035156 60.488281 176.746094 59.285156 176.132812 C 57.550781 175.246094 56.4375 173.261719 56.5 171.347656 C 56.535156 170.210938 56.984375 169.121094 58.089844 167.757812 C 61.0625 164.082031 65.480469 162.472656 68.039062 161.773438 C 68.546875 161.835938 69.289062 162.007812 69.628906 162.570312 C 70.273438 163.636719 68.792969 164.929688 68.835938 166.957031 C 68.863281 168.253906 69.515625 169.152344 70.824219 170.945312 C 72.230469 172.878906 73.28125 174.316406 75.199219 175.335938 C 75.726562 175.609375 79.507812 177.535156 83.554688 175.734375 C 84.351562 175.378906 88.445312 173.414062 88.730469 169.351562 C 88.746094 169.132812 88.917969 165.796875 86.339844 163.769531 C 84.0625 161.972656 80.339844 161.753906 78.382812 163.769531 C 76.980469 165.214844 76.257812 168.042969 77.589844 169.351562 C 78.636719 170.382812 80.660156 170.164062 81.964844 169.351562 C 83.628906 168.316406 83.914062 166.449219 83.953125 166.160156 C 85.621094 166.769531 86.734375 168.050781 86.738281 169.351562 C 86.742188 170.984375 84.988281 171.964844 83.953125 172.542969 C 83.429688 172.835938 80.113281 174.609375 76.792969 172.941406 C 74.023438 171.550781 73.214844 168.753906 72.8125 167.359375 C 72.53125 166.375 71.503906 162.820312 73.609375 159.378906 C 75.957031 155.546875 80.25 155.042969 80.769531 154.992188 C 85.414062 159.25 90.054688 163.5 94.695312 167.757812 C 94.835938 168.789062 94.902344 170.394531 94.300781 172.144531 C 93.011719 175.878906 89.5625 177.695312 87.933594 178.527344 C 83.109375 180.980469 79.453125 179.988281 79.179688 181.316406 C 78.929688 182.523438 81.695312 184.460938 84.351562 184.90625 C 87.0625 185.363281 89.335938 184.210938 91.117188 183.3125 C 92.957031 182.378906 94.28125 181.285156 95.09375 180.519531 C 94.84375 181.519531 94.5625 183.007812 95.09375 183.3125 C 95.707031 183.664062 97.3125 182.375 98.277344 180.917969 C 99.429688 179.191406 98.996094 178.269531 100.265625 175.335938 C 100.90625 173.859375 101.503906 172.523438 102.257812 172.542969 C 102.996094 172.5625 103.636719 173.886719 103.847656 174.9375 C 104.019531 175.777344 103.976562 176.746094 102.257812 180.519531 C 100.910156 183.472656 100.238281 184.945312 99.472656 186.105469 C 98.589844 187.4375 97.949219 188.109375 97.878906 189.292969 C 97.804688 190.617188 98.484375 191.742188 99.074219 192.484375 C 99.617188 192.757812 100.683594 193.179688 101.859375 192.882812 C 103.589844 192.449219 104.5 190.71875 105.042969 189.695312 C 105.835938 188.191406 105.582031 187.664062 106.632812 185.703125 C 107.035156 184.953125 107.765625 183.589844 108.226562 183.710938 C 108.734375 183.847656 108.640625 185.746094 108.625 186.105469 C 108.539062 187.777344 108.101562 188.429688 107.828125 189.695312 C 107.40625 191.625 107.753906 193.1875 108.226562 195.277344 C 108.71875 197.484375 108.964844 198.582031 109.816406 199.265625 C 110.621094 199.90625 111.648438 200.046875 112.601562 199.976562 C 113.558594 200.046875 114.582031 199.90625 115.386719 199.265625 C 116.238281 198.582031 116.484375 197.484375 116.980469 195.277344 C 117.449219 193.1875 117.796875 191.625 117.375 189.695312 C 117.101562 188.429688 116.664062 187.777344 116.582031 186.105469 C 116.566406 185.746094 116.46875 183.847656 116.980469 183.710938 C 117.4375 183.589844 118.167969 184.953125 118.570312 185.703125 C 119.621094 187.664062 119.371094 188.191406 120.160156 189.695312 C 120.703125 190.71875 121.613281 192.449219 123.34375 192.882812 C 124.519531 193.179688 125.585938 192.757812 126.128906 192.484375 C 126.71875 191.742188 127.398438 190.617188 127.324219 189.292969 C 127.257812 188.109375 126.617188 187.4375 125.730469 186.105469 C 124.964844 184.945312 124.292969 183.472656 122.945312 180.519531 C 121.226562 176.746094 121.183594 175.777344 121.355469 174.9375 C 121.566406 173.886719 122.207031 172.5625 122.945312 172.542969 C 123.699219 172.523438 124.296875 173.859375 124.9375 175.335938 C 126.210938 178.269531 125.777344 179.191406 126.925781 180.917969 C 127.894531 182.375 129.496094 183.664062 130.109375 183.3125 C 130.640625 183.007812 130.359375 181.519531 130.109375 180.519531 C 130.925781 181.285156 132.246094 182.378906 134.089844 183.3125 C 135.867188 184.210938 138.140625 185.363281 140.851562 184.90625 C 143.511719 184.460938 146.273438 182.523438 146.023438 181.316406 C 145.75 179.988281 142.09375 180.980469 137.269531 178.527344 C 135.640625 177.695312 132.195312 175.878906 130.90625 172.144531 C 130.300781 170.394531 130.367188 168.789062 130.507812 167.757812 C 135.148438 163.5 139.789062 159.25 144.433594 154.992188 C 144.953125 155.042969 149.246094 155.546875 151.59375 159.378906 C 153.699219 162.820312 152.671875 166.375 152.390625 167.359375 C 151.988281 168.753906 151.179688 171.550781 148.410156 172.941406 C 145.089844 174.609375 141.773438 172.835938 141.25 172.542969 C 140.214844 171.964844 138.460938 170.984375 138.464844 169.351562 C 138.46875 168.050781 139.582031 166.769531 141.25 166.160156 C 141.289062 166.449219 141.578125 168.316406 143.238281 169.351562 C 144.542969 170.164062 146.566406 170.382812 147.617188 169.351562 C 148.945312 168.042969 148.226562 165.214844 146.820312 163.769531 C 144.863281 161.753906 141.140625 161.972656 138.863281 163.769531 C 136.285156 165.796875 136.460938 169.132812 136.476562 169.351562 C 136.757812 173.414062 140.851562 175.378906 141.648438 175.734375 C 145.695312 177.535156 149.476562 175.609375 150.003906 175.335938 C 151.921875 174.316406 152.972656 172.878906 154.378906 170.945312 C 155.6875 169.152344 156.339844 168.253906 156.371094 166.957031 C 156.410156 164.929688 154.929688 163.636719 155.574219 162.570312 C 155.914062 162.007812 156.65625 161.835938 157.164062 161.773438 C 159.722656 162.472656 164.140625 164.082031 167.113281 167.757812 C 168.21875 169.121094 168.667969 170.210938 168.703125 171.347656 C 168.769531 173.261719 167.652344 175.246094 165.917969 176.132812 C 164.71875 176.746094 162.824219 177.035156 161.941406 176.132812 C 161.621094 175.804688 161.359375 175.246094 161.542969 174.9375 C 161.816406 174.472656 162.800781 175.027344 163.53125 174.535156 C 164.304688 174.019531 164.605469 172.472656 163.929688 171.347656 C 163.316406 170.328125 162.089844 169.976562 161.144531 170.148438 C 159.691406 170.417969 159.042969 171.890625 158.757812 172.542969 C 158.144531 173.941406 157.878906 176.253906 159.15625 177.726562 C 161.195312 180.085938 165.53125 178.425781 166.316406 178.125 C 167.1875 177.796875 169.417969 176.941406 170.695312 174.535156 C 171.683594 172.679688 171.578125 170.882812 171.488281 170.148438 C 175.996094 174.136719 180.507812 178.125 185.015625 182.113281 C 185.757812 182.71875 188.226562 184.570312 191.78125 184.507812 C 192.667969 184.492188 196.117188 184.433594 198.546875 181.714844 C 199.035156 181.167969 201.148438 178.804688 200.535156 175.734375 C 200.476562 175.441406 199.792969 172.261719 196.953125 171.347656 C 195.089844 170.742188 193.460938 171.492188 192.976562 171.746094 C 191.761719 172.375 189.667969 174.058594 190.191406 175.734375 C 190.710938 177.421875 193.585938 178.167969 194.566406 177.328125 C 195.539062 176.5 194.402344 174.34375 195.363281 173.738281 C 195.996094 173.339844 197.140625 173.863281 197.75 174.535156 C 198.871094 175.78125 198.28125 177.6875 198.148438 178.125 C 197.496094 180.238281 195.601562 181.203125 195.363281 181.316406 C 194.660156 181.660156 192.59375 182.46875 188.199219 180.519531 C 184.074219 178.6875 183.132812 176.742188 177.855469 172.144531 C 172.476562 167.457031 169.039062 165.617188 169.5 164.566406 C 169.785156 163.90625 171.195312 164.464844 175.070312 164.167969 C 179.480469 163.828125 180.214844 162.914062 183.027344 163.367188 C 184.304688 163.578125 186.484375 163.960938 187.800781 165.761719 C 188.050781 166.097656 189.25 167.746094 188.597656 169.351562 C 187.90625 171.046875 185.710938 171.308594 185.414062 171.347656 C 183.820312 171.539062 182.605469 170.800781 182.230469 170.546875 C 182.289062 170.925781 182.546875 172.414062 183.824219 173.339844 C 185.277344 174.394531 186.992188 173.949219 187.800781 173.738281 C 188.207031 173.636719 190.625 172.964844 191.78125 170.546875 C 192.613281 168.816406 192.3125 167.203125 192.179688 166.558594 C 191.726562 164.316406 190.285156 162.984375 189.792969 162.570312 C 191.378906 161.800781 193.527344 160.894531 196.160156 160.179688 C 197.046875 159.933594 199.660156 159.261719 203.320312 158.980469 C 208.1875 158.613281 210.847656 158.410156 212.472656 160.179688 C 213.417969 161.207031 213.863281 162.742188 213.664062 164.167969 C 213.378906 166.238281 211.820312 167.402344 211.277344 167.757812 C 208.789062 169.390625 205.972656 168.265625 205.707031 168.15625 C 205.996094 168.460938 208.214844 170.789062 211.675781 170.546875 C 212.054688 170.519531 215.386719 170.238281 217.246094 167.359375 C 218.800781 164.953125 218.257812 162.390625 218.042969 161.375 Z M 113 173.339844 C 103.820312 168.933594 88.003906 159.539062 77.984375 141.832031 C 73.496094 133.902344 71.34375 126.375 70.425781 123.085938 C 66.707031 109.792969 66.6875 98.277344 67.242188 90.777344 C 69.5625 89.582031 75.578125 86.078125 79.179688 78.8125 C 79.855469 77.445312 81.925781 72.964844 81.964844 66.847656 C 81.984375 64.058594 81.574219 61.730469 81.167969 60.066406 L 144.832031 60.066406 C 144.425781 61.730469 144.015625 64.058594 144.035156 66.847656 C 144.074219 72.964844 146.144531 77.445312 146.820312 78.8125 C 150.421875 86.078125 156.4375 89.582031 158.757812 90.777344 C 159.3125 98.277344 159.292969 109.792969 155.574219 123.085938 C 154.65625 126.375 152.503906 133.902344 148.015625 141.832031 C 137.996094 159.539062 122.179688 168.933594 113 173.339844 Z M 113 173.339844 "/>
<path style=" stroke:none;fill-rule:nonzero;fill:rgb(94.117647%,81.176472%,6.27451%);fill-opacity:1;" d="M 226 109.921875 C 225.867188 110.453125 225.734375 110.988281 225.601562 111.519531 C 223.867188 111.78125 221.523438 112.242188 218.839844 113.113281 C 216.304688 113.933594 210.546875 116.066406 204.910156 120.691406 C 198.921875 125.609375 199.859375 127.773438 191.78125 136.644531 C 188.023438 140.777344 185.933594 143.066406 182.628906 145.421875 C 172.160156 152.875 159.84375 153.566406 159.550781 152.601562 C 159.339844 151.894531 165.75 150.839844 173.480469 145.023438 C 175.726562 143.332031 178.574219 140.867188 185.414062 132.257812 C 196.234375 118.640625 195.59375 116.644531 199.738281 113.511719 C 204.21875 110.125 211.925781 107.207031 226 109.921875 Z M 226 109.921875 "/>
<path style=" stroke:none;fill-rule:nonzero;fill:rgb(94.117647%,81.176472%,6.27451%);fill-opacity:1;" d="M 179.449219 105.933594 C 179.1875 107.660156 177.921875 115.511719 172.285156 125.476562 C 165.851562 136.851562 157.46875 144.378906 156.769531 143.824219 C 155.957031 143.183594 167.324219 133.085938 169.101562 117.101562 C 169.664062 112.070312 169.519531 104.210938 169.5 103.140625 C 169.367188 95.863281 168.777344 92.796875 169.5 87.585938 C 170.175781 82.738281 171.59375 78.898438 172.683594 76.417969 C 174.621094 78.976562 177.484375 83.417969 179.050781 89.582031 C 180.804688 96.496094 180.023438 102.074219 179.449219 105.933594 Z M 179.449219 105.933594 "/>
<path style=" stroke:none;fill-rule:nonzero;fill:rgb(94.117647%,81.176472%,6.27451%);fill-opacity:1;" d="M 197.75 72.828125 C 198.039062 76.011719 198.757812 84.285156 197.75 92.773438 C 196.265625 105.3125 191.484375 114.410156 189.394531 118.296875 C 187.164062 122.449219 182.535156 130.882812 173.480469 138.640625 C 163.128906 147.507812 151.703125 151.46875 151.195312 150.605469 C 150.726562 149.800781 160.261719 145.710938 169.898438 135.050781 C 173.503906 131.0625 181.949219 121.496094 185.414062 107.128906 C 187.476562 98.582031 186.992188 91.582031 186.210938 80.40625 C 185.113281 64.609375 182.375 60.949219 184.621094 53.683594 C 186.417969 47.867188 190.871094 41.484375 200.933594 35.734375 C 199.910156 37.90625 198.652344 41.019531 197.75 44.910156 C 197.015625 48.085938 196.640625 51.253906 196.554688 55.679688 C 196.417969 63.113281 197.242188 67.207031 197.75 72.828125 Z M 197.75 72.828125 "/>
<path style=" stroke:none;fill-rule:nonzero;fill:rgb(94.117647%,81.176472%,6.27451%);fill-opacity:1;" d="M 66.445312 152.601562 C 66.15625 153.566406 53.839844 152.875 43.371094 145.421875 C 40.066406 143.066406 37.976562 140.777344 34.21875 136.644531 C 26.140625 127.773438 27.078125 125.609375 21.089844 120.691406 C 15.453125 116.066406 9.695312 113.933594 7.160156 113.113281 C 4.476562 112.242188 2.132812 111.78125 0.398438 111.519531 C 0.265625 110.988281 0.132812 110.453125 0 109.921875 C 14.074219 107.207031 21.78125 110.125 26.261719 113.511719 C 30.40625 116.644531 29.765625 118.640625 40.585938 132.257812 C 47.425781 140.867188 50.273438 143.332031 52.519531 145.023438 C 60.25 150.839844 66.660156 151.894531 66.445312 152.601562 Z M 66.445312 152.601562 "/>
<path style=" stroke:none;fill-rule:nonzero;fill:rgb(94.117647%,81.176472%,6.27451%);fill-opacity:1;" d="M 69.230469 143.824219 C 68.53125 144.378906 60.148438 136.851562 53.714844 125.476562 C 48.078125 115.511719 46.8125 107.660156 46.550781 105.933594 C 45.976562 102.074219 45.195312 96.496094 46.949219 89.582031 C 48.515625 83.417969 51.378906 78.976562 53.316406 76.417969 C 54.40625 78.898438 55.824219 82.738281 56.5 87.585938 C 57.222656 92.796875 56.632812 95.863281 56.5 103.140625 C 56.480469 104.210938 56.335938 112.070312 56.898438 117.101562 C 58.675781 133.085938 70.042969 143.183594 69.230469 143.824219 Z M 69.230469 143.824219 "/>
<path style=" stroke:none;fill-rule:nonzero;fill:rgb(94.117647%,81.176472%,6.27451%);fill-opacity:1;" d="M 75.199219 150.605469 C 74.695312 151.46875 63.269531 147.507812 52.917969 138.640625 C 43.863281 130.882812 39.230469 122.449219 37.003906 118.296875 C 34.914062 114.410156 30.132812 105.3125 28.648438 92.773438 C 27.640625 84.285156 28.359375 76.011719 28.648438 72.828125 C 29.15625 67.207031 29.980469 63.113281 29.839844 55.679688 C 29.757812 51.253906 29.382812 48.085938 28.648438 44.910156 C 27.746094 41.019531 26.488281 37.90625 25.464844 35.734375 C 35.527344 41.484375 39.980469 47.867188 41.777344 53.683594 C 44.023438 60.949219 41.285156 64.609375 40.1875 80.40625 C 39.40625 91.582031 38.921875 98.582031 40.980469 107.128906 C 44.449219 121.496094 52.894531 131.0625 56.5 135.050781 C 66.136719 145.710938 75.671875 149.800781 75.199219 150.605469 Z M 75.199219 150.605469 "/>
<path style=" stroke:none;fill-rule:nonzero;fill:rgb(94.117647%,81.176472%,6.27451%);fill-opacity:1;" d="M 113.796875 104.738281 C 112.636719 108.359375 110.582031 110.398438 107.03125 113.910156 C 103.726562 117.1875 101.570312 119.261719 98.277344 119.496094 C 97.664062 119.539062 94.289062 119.78125 92.308594 117.5 C 90.152344 115.015625 91.15625 111.257812 91.515625 109.921875 C 92.585938 105.917969 95.363281 103.59375 98.277344 101.148438 C 98.445312 101.007812 98.609375 100.871094 98.773438 100.742188 C 99.269531 100.34375 99.757812 99.972656 100.242188 99.625 C 100.398438 99.511719 100.554688 99.40625 100.710938 99.296875 C 101.195312 98.960938 101.675781 98.648438 102.144531 98.355469 C 102.355469 98.226562 102.566406 98.101562 102.773438 97.980469 C 102.945312 97.882812 103.113281 97.78125 103.28125 97.691406 C 103.320312 97.664062 103.355469 97.644531 103.390625 97.625 C 103.480469 97.574219 103.578125 97.519531 103.667969 97.46875 C 103.765625 97.417969 103.855469 97.367188 103.949219 97.320312 C 104.082031 97.246094 104.222656 97.175781 104.359375 97.105469 C 104.472656 97.042969 104.59375 96.984375 104.707031 96.925781 C 105.316406 96.617188 105.898438 96.34375 106.453125 96.089844 C 106.84375 95.914062 107.222656 95.75 107.585938 95.597656 C 107.601562 95.585938 107.613281 95.582031 107.628906 95.574219 C 107.972656 95.433594 108.308594 95.296875 108.621094 95.164062 C 109.628906 94.75 111.101562 94.152344 113.003906 93.574219 C 116.074219 97.601562 114.300781 103.148438 113.796875 104.738281 Z M 113.796875 104.738281 "/>
</g>
</svg>
