<svg width="121" height="51" viewBox="0 0 121 51" fill="none" xmlns="http://www.w3.org/2000/svg">
<path fill-rule="evenodd" clip-rule="evenodd" d="M29.1304 42.5982V30.7252L14.5539 28.6154V37.5602L29.1304 42.5982ZM29.9888 26.9628C29.9888 27.1874 29.9326 27.388 29.8363 27.5244C29.7962 27.5805 29.724 27.6527 29.6278 27.6527C29.4192 27.6286 29.1224 27.2676 29.1224 26.7703C29.1224 26.3932 29.2989 26.0884 29.5235 26.0884C29.708 26.1044 29.9888 26.4574 29.9888 26.9628ZM29.4914 24.9412C29.4994 24.9412 29.5796 24.9412 29.5957 24.9412C30.4541 25.0054 31.1279 25.8958 31.1279 26.9628C31.1279 27.4281 30.9915 27.8693 30.7509 28.1982C30.4701 28.5833 30.077 28.7919 29.6358 28.7919C29.5877 28.7919 29.5315 28.7919 29.4834 28.7839C28.641 28.6876 27.9752 27.7971 27.9752 26.7622C27.9752 25.7434 28.641 24.9412 29.4914 24.9412ZM13.9041 26.9869L29.9968 29.3213C30.1813 29.3454 30.3417 29.4417 30.4621 29.5781C30.5744 29.7144 30.6466 29.8829 30.6466 30.0754V43.6651C30.6466 43.7855 30.6145 43.9058 30.5584 44.0101C30.5022 44.1144 30.422 44.2107 30.3257 44.2748C30.2615 44.323 30.1893 44.3551 30.1171 44.3791C30.0449 44.4032 29.9647 44.4192 29.8845 44.4192C29.8444 44.4192 29.8043 44.4192 29.7561 44.4112C29.716 44.4032 29.6759 44.3952 29.6358 44.3791L13.5512 38.8117C13.3987 38.7555 13.2704 38.6593 13.1821 38.5309C13.0939 38.4025 13.0377 38.2501 13.0377 38.0897V27.741C13.0377 27.6287 13.0618 27.5244 13.1099 27.4281C13.1581 27.3318 13.2223 27.2436 13.3025 27.1714C13.3747 27.1152 13.4549 27.0671 13.5351 27.035C13.6234 27.0029 13.7116 26.9869 13.7999 26.9869H13.8079H13.848H13.856H13.8801H13.9041ZM27.3655 11.3034C26.2745 9.731 24.7583 8.79239 23.0255 8.79239C22.857 8.79239 22.6805 8.80042 22.512 8.81646C22.3436 8.83251 22.1671 8.86459 21.9906 8.89668C19.9449 9.31384 18.0837 10.5733 16.736 12.2741C15.3883 13.9748 14.5539 16.1167 14.5539 18.2827V22.1815L29.1304 22.9276V17.657C29.1304 15.1139 28.4645 12.8918 27.3655 11.3034ZM15.5728 11.3274C17.1371 9.36197 19.3031 7.8939 21.6857 7.41257C21.9104 7.36443 22.135 7.33234 22.3516 7.30828C22.5762 7.28421 22.8008 7.27619 23.0174 7.27619C25.1995 7.27619 27.1088 8.3993 28.4726 10.2685C29.8203 12.1216 30.6386 14.7128 30.6386 17.657V23.7218C30.6386 23.8261 30.6145 23.9224 30.5744 24.0186C30.5343 24.1149 30.4781 24.1951 30.3979 24.2673C30.3257 24.3315 30.2455 24.3877 30.1572 24.4197C30.069 24.4518 29.9727 24.4759 29.8765 24.4759H29.8684H29.8283L13.7517 23.6576C13.5512 23.6496 13.3667 23.5614 13.2383 23.425C13.1099 23.2886 13.0297 23.1041 13.0297 22.9035V18.2827C13.0458 15.7718 14.0084 13.2929 15.5728 11.3274ZM32.4837 48.4464L11.2087 39.654V18.2827C11.2087 15.3466 12.4281 12.3463 14.3855 9.86737C16.3509 7.3885 19.0625 5.44711 22.0467 4.62082C22.849 4.40422 23.6271 4.31597 24.3892 4.36411C25.1433 4.41224 25.8734 4.58873 26.5713 4.9016C28.4004 6.37769 29.9005 8.26292 30.9354 10.4289C31.9302 12.5147 32.4917 14.8572 32.4917 17.3361V48.4464H32.4837ZM33.9999 17.3361V49.5775C33.9999 49.6417 33.9919 49.6979 33.9758 49.754C33.9598 49.8102 33.9437 49.8583 33.9197 49.9065C33.9036 49.9385 33.8876 49.9626 33.8715 49.9787L33.8555 49.9947C33.8395 50.0268 33.8154 50.0509 33.7913 50.0749C33.7673 50.099 33.7432 50.1231 33.7191 50.1471C33.7031 50.1632 33.687 50.1792 33.663 50.2033C33.6389 50.2193 33.6148 50.2273 33.5908 50.2354L33.5827 50.2434C33.5667 50.2514 33.5426 50.2675 33.5266 50.2755H33.5186C33.4784 50.2915 33.4383 50.3076 33.3902 50.3156C33.3421 50.3236 33.2939 50.3316 33.2538 50.3316C33.2057 50.3316 33.1576 50.3236 33.1094 50.3156C33.0613 50.3076 33.0132 50.2915 32.965 50.2755L10.1738 40.8654C10.0294 40.8092 9.91709 40.7049 9.83687 40.5846C9.75664 40.4643 9.70851 40.3199 9.70851 40.1594V18.2827C9.70851 15.0177 11.0482 11.6964 13.2142 8.96086C15.3802 6.22527 18.3645 4.07531 21.6617 3.16879C22.0628 3.05648 22.4559 2.97626 22.857 2.92812C23.0094 2.91208 23.1618 2.89603 23.3142 2.87999C22.4559 2.4869 21.5574 2.17403 20.6268 1.94138C19.4957 1.66061 18.3164 1.51621 17.097 1.51621C12.8452 1.51621 8.99452 3.28912 6.2108 6.15307C3.41906 9.01701 1.69427 12.972 1.69427 17.3361V49.5775C1.69427 49.7861 1.60602 49.9787 1.46965 50.115C1.33327 50.2514 1.14073 50.3397 0.932156 50.3397C0.723577 50.3397 0.531045 50.2514 0.394666 50.115C0.258288 49.9787 0.170044 49.7861 0.170044 49.5775V17.3361C0.170044 12.5629 2.07132 8.23083 5.1278 5.08611C8.1923 1.94941 12.428 0 17.089 0C21.7579 0 25.9857 1.94139 29.0502 5.08611C32.0986 8.22281 33.9999 12.5548 33.9999 17.3361Z" fill="url(#paint0_linear_22_151)"/>
<path d="M51.728 35V17.12H54.992V24.92H62.6V17.12H65.888V35H62.6V27.8H54.992V35H51.728ZM75.2576 35.288C73.9136 35.288 72.7376 34.984 71.7296 34.376C70.7216 33.768 69.9376 32.944 69.3776 31.904C68.8176 30.864 68.5376 29.712 68.5376 28.448C68.5376 27.136 68.8176 25.976 69.3776 24.968C69.9536 23.944 70.7296 23.136 71.7056 22.544C72.6976 21.952 73.8016 21.656 75.0176 21.656C76.0416 21.656 76.9376 21.824 77.7056 22.16C78.4896 22.496 79.1536 22.96 79.6976 23.552C80.2416 24.144 80.6576 24.824 80.9456 25.592C81.2336 26.344 81.3776 27.16 81.3776 28.04C81.3776 28.264 81.3616 28.496 81.3296 28.736C81.3136 28.976 81.2736 29.184 81.2096 29.36H71.1296V26.96H79.4336L77.9456 28.088C78.0896 27.352 78.0496 26.696 77.8256 26.12C77.6176 25.544 77.2656 25.088 76.7696 24.752C76.2896 24.416 75.7056 24.248 75.0176 24.248C74.3616 24.248 73.7776 24.416 73.2656 24.752C72.7536 25.072 72.3616 25.552 72.0896 26.192C71.8336 26.816 71.7376 27.576 71.8016 28.472C71.7376 29.272 71.8416 29.984 72.1136 30.608C72.4016 31.216 72.8176 31.688 73.3616 32.024C73.9216 32.36 74.5616 32.528 75.2816 32.528C76.0016 32.528 76.6096 32.376 77.1056 32.072C77.6176 31.768 78.0176 31.36 78.3056 30.848L80.8496 32.096C80.5936 32.72 80.1936 33.272 79.6496 33.752C79.1056 34.232 78.4576 34.608 77.7056 34.88C76.9696 35.152 76.1536 35.288 75.2576 35.288ZM89.7129 35.144C88.2409 35.144 87.0969 34.744 86.2809 33.944C85.4809 33.128 85.0809 31.984 85.0809 30.512V24.752H82.8249V21.944H83.0649C83.7049 21.944 84.2009 21.776 84.5529 21.44C84.9049 21.104 85.0809 20.616 85.0809 19.976V18.968H88.2249V21.944H91.2249V24.752H88.2249V30.344C88.2249 30.776 88.2969 31.144 88.4409 31.448C88.6009 31.752 88.8409 31.984 89.1609 32.144C89.4969 32.304 89.9209 32.384 90.4329 32.384C90.5449 32.384 90.6729 32.376 90.8169 32.36C90.9769 32.344 91.1289 32.328 91.2729 32.312V35C91.0489 35.032 90.7929 35.064 90.5049 35.096C90.2169 35.128 89.9529 35.144 89.7129 35.144ZM99.8458 35.288C98.5498 35.288 97.3818 34.992 96.3418 34.4C95.3178 33.792 94.5098 32.976 93.9178 31.952C93.3258 30.912 93.0298 29.744 93.0298 28.448C93.0298 27.152 93.3258 25.992 93.9178 24.968C94.5098 23.944 95.3178 23.136 96.3418 22.544C97.3818 21.952 98.5498 21.656 99.8458 21.656C100.774 21.656 101.638 21.824 102.438 22.16C103.238 22.48 103.926 22.928 104.502 23.504C105.094 24.064 105.518 24.736 105.774 25.52L103.014 26.72C102.774 26.064 102.366 25.536 101.79 25.136C101.23 24.736 100.582 24.536 99.8458 24.536C99.1578 24.536 98.5418 24.704 97.9978 25.04C97.4698 25.376 97.0538 25.84 96.7498 26.432C96.4458 27.024 96.2938 27.704 96.2938 28.472C96.2938 29.24 96.4458 29.92 96.7498 30.512C97.0538 31.104 97.4698 31.568 97.9978 31.904C98.5418 32.24 99.1578 32.408 99.8458 32.408C100.598 32.408 101.254 32.208 101.814 31.808C102.374 31.408 102.774 30.872 103.014 30.2L105.774 31.448C105.518 32.184 105.102 32.848 104.526 33.44C103.95 34.016 103.262 34.472 102.462 34.808C101.662 35.128 100.79 35.288 99.8458 35.288ZM108.159 35V16.832H111.303V24.512L110.871 24.056C111.175 23.272 111.671 22.68 112.359 22.28C113.063 21.864 113.879 21.656 114.807 21.656C115.767 21.656 116.615 21.864 117.351 22.28C118.103 22.696 118.687 23.28 119.103 24.032C119.519 24.768 119.727 25.624 119.727 26.6V35H116.583V27.344C116.583 26.768 116.471 26.272 116.247 25.856C116.023 25.44 115.711 25.12 115.311 24.896C114.927 24.656 114.471 24.536 113.943 24.536C113.431 24.536 112.975 24.656 112.575 24.896C112.175 25.12 111.863 25.44 111.639 25.856C111.415 26.272 111.303 26.768 111.303 27.344V35H108.159Z" fill="#14183E"/>
<defs>
<linearGradient id="paint0_linear_22_151" x1="37" y1="-50.5" x2="12.2411" y2="63.2832" gradientUnits="userSpaceOnUse">
<stop stop-color="#14183E"/>
<stop offset="1" stop-color="#3450A3"/>
</linearGradient>
</defs>
</svg>
